<svg width="68" height="68" viewBox="0 0 68 68" fill="none" xmlns="http://www.w3.org/2000/svg">
<path d="M67.0039 57.1313C66.4537 57.1313 66.0078 57.5772 66.0078 58.1274V60.8943H32.4727V26.031C32.4727 25.4808 32.0267 25.0349 31.4766 25.0349H8.89844C8.34833 25.0349 7.90234 25.4808 7.90234 26.031V60.8943H1.99219V24.1274C1.99219 23.5772 1.5462 23.1313 0.996094 23.1313C0.445984 23.1313 0 23.5772 0 24.1274V61.8904C0 62.4407 0.445984 62.8865 0.996094 62.8865H67.0039C67.5541 62.8865 68 62.4407 68 61.8904V58.1274C68 57.5772 67.5541 57.1313 67.0039 57.1313ZM9.89453 60.8943V27.0271H30.4805V60.8943H9.89453Z" fill="#7B1111"/>
<path d="M67.0039 5.11328H12.6172C12.0671 5.11328 11.6211 5.55913 11.6211 6.10938C11.6211 6.65962 12.0671 7.10547 12.6172 7.10547H66.0078V14.4102H1.99219V7.10547H8.45577C9.00588 7.10547 9.45187 6.65962 9.45187 6.10938C9.45187 5.55913 9.00588 5.11328 8.45577 5.11328H0.996094C0.445984 5.11328 0 5.55913 0 6.10938V19.8997C0 20.4499 0.445984 20.8958 0.996094 20.8958C1.5462 20.8958 1.99219 20.4499 1.99219 19.8997V16.4023H38.1869V35.0625C38.1869 35.6127 38.6328 36.0586 39.183 36.0586H58.8393C59.3895 36.0586 59.8354 35.6127 59.8354 35.0625V16.4023H66.0078V53.8997C66.0078 54.4499 66.4537 54.8958 67.0039 54.8958C67.5541 54.8958 68 54.4499 68 53.8997V6.10938C68 5.55913 67.5541 5.11328 67.0039 5.11328ZM57.8432 34.0664H40.1791V31.543H57.8432V34.0664ZM57.8432 29.5508H40.1791V16.4023H57.8432V29.5508Z" fill="#7B1111"/>
<path d="M43.9609 20.3228H54.5859C55.1362 20.3228 55.582 19.8769 55.582 19.3267C55.582 18.7764 55.1362 18.3306 54.5859 18.3306H43.9609C43.4107 18.3306 42.9648 18.7764 42.9648 19.3267C42.9648 19.8769 43.4107 20.3228 43.9609 20.3228Z" fill="#7B1111"/>
<path d="M43.9609 23.9087H54.5859C55.1362 23.9087 55.582 23.4628 55.582 22.9126C55.582 22.3624 55.1362 21.9165 54.5859 21.9165H43.9609C43.4107 21.9165 42.9648 22.3624 42.9648 22.9126C42.9648 23.4628 43.4107 23.9087 43.9609 23.9087Z" fill="#7B1111"/>
<path d="M43.9609 27.4946H54.5859C55.1362 27.4946 55.582 27.0488 55.582 26.4985C55.582 25.9483 55.1362 25.5024 54.5859 25.5024H43.9609C43.4107 25.5024 42.9648 25.9483 42.9648 26.4985C42.9648 27.0488 43.4107 27.4946 43.9609 27.4946Z" fill="#7B1111"/>
<path d="M23.6406 23.707C25.2884 23.707 26.6289 22.3664 26.6289 20.7188C26.6289 19.0711 25.2884 17.7305 23.6406 17.7305H16.7344C15.0866 17.7305 13.7461 19.0711 13.7461 20.7188C13.7461 22.3664 15.0866 23.707 16.7344 23.707H23.6406ZM15.7383 20.7188C15.7383 20.1694 16.1851 19.7227 16.7344 19.7227H23.6406C24.1899 19.7227 24.6367 20.1694 24.6367 20.7188C24.6367 21.2681 24.1899 21.7148 23.6406 21.7148H16.7344C16.1851 21.7148 15.7383 21.2681 15.7383 20.7188Z" fill="#7B1111"/>
</svg>
