<svg width="48" height="68" viewBox="0 0 48 68" fill="none" xmlns="http://www.w3.org/2000/svg">
<path d="M41.7831 43.5255L30.5807 39.7899V37.5174C31.6577 36.8132 32.6141 35.9424 33.4169 34.941L38.2033 33.3463C39.5479 32.8977 40.4516 31.6441 40.4516 30.226V12.3968C40.4516 11.2441 40.1138 10.1287 39.4744 9.17123C38.4149 7.5809 36.6524 6.62452 34.7462 6.58832C32.6953 2.56535 28.556 0 24 0C19.444 0 15.3048 2.56535 13.2538 6.58723C11.3476 6.62342 9.58513 7.57981 8.52564 9.17013C7.88623 10.1276 7.54842 11.2441 7.54842 12.3968V30.226C7.54842 31.6441 8.45216 32.8988 9.7979 33.3474L14.5842 34.9421C15.386 35.9446 16.3434 36.8143 17.4205 37.5185V39.791L6.21803 43.5255C3.07797 44.5707 0.967773 47.498 0.967773 50.807V68H47.0323V50.807C47.0323 47.498 44.9221 44.5707 41.7831 43.5255ZM35.4153 43.7141L28.4825 56.678L27.3605 54.6073L33.5233 43.0835L35.4153 43.7141ZM31.412 42.3794L26.1091 52.2964L25.3754 50.943L30.2275 41.9845L31.412 42.3794ZM24.1284 48.6397L19.6129 40.3032V38.6459C20.9751 39.1801 22.4514 39.4839 24 39.4839C25.5487 39.4839 27.0249 39.1801 28.3871 38.6459V40.7781L24.1284 48.6397ZM33.871 19.7419H14.1291V13.1613L33.871 13.1591V19.7419ZM18.0972 10.9677L19.194 8.77419H28.8061L29.9029 10.9677H18.0972ZM34.6354 8.77419C35.8507 8.77419 36.9771 9.37742 37.6494 10.3875C38.0486 10.9842 38.2581 11.6785 38.2581 12.3968V30.226C38.2581 30.6987 37.9576 31.1166 37.5079 31.2668L35.1345 32.0576C35.7322 30.6285 36.0645 29.0623 36.0645 27.4194V13.1613C36.0645 11.9515 35.0807 10.9677 33.871 10.9677H32.3553L31.2585 8.77419H34.6354ZM24 2.19355C27.3298 2.19355 30.3778 3.87819 32.1896 6.58065H15.8104C17.6223 3.87819 20.6702 2.19355 24 2.19355ZM10.4922 31.2668C10.0425 31.1166 9.74197 30.6976 9.74197 30.226V12.3968C9.74197 11.6795 9.95145 10.9842 10.3507 10.3875C11.023 9.37742 12.1494 8.77419 13.3646 8.77419H16.7416L15.6448 10.9677H14.1291C12.9193 10.9677 11.9355 11.9515 11.9355 13.1613V27.4194C11.9355 29.0623 12.2678 30.6285 12.8656 32.0576L10.4922 31.2668ZM14.1291 27.4194V21.9355H33.871V27.4194C33.871 32.8626 29.4433 37.2903 24 37.2903C18.5567 37.2903 14.1291 32.8626 14.1291 27.4194ZM11.9355 65.8064V50.4516H9.74197V65.8064H3.16132V50.807C3.16132 48.4434 4.66829 46.3519 6.91119 45.605L10.6918 44.3448L22.1695 65.8064H11.9355ZM24.657 65.8064L12.8031 43.6406L14.695 43.01L26.8856 65.8064H24.657ZM29.3731 65.8064L16.8063 42.307L17.9897 41.9121L30.9327 65.8064H29.3731ZM44.8387 65.8064H38.2581V50.4516H36.0645V65.8064H33.4268L29.734 58.9878L37.5265 44.4172L41.0889 45.605C43.3318 46.353 44.8387 48.4434 44.8387 50.807V65.8064Z" fill="#7B1111"/>
</svg>
