<svg width="78" height="78" viewBox="0 0 78 78" fill="none" xmlns="http://www.w3.org/2000/svg">
<path d="M52.394 73.0573H45.3963C44.7503 73.0573 44.2165 72.5723 44.1544 71.9291L41.9841 49.3231L43.1808 49.0356L45.3676 71.8127C45.3689 71.8273 45.3813 71.8386 45.3963 71.8386H51.7847V47.2166L53.0037 47.029V72.4476C53.0034 72.7846 52.7304 73.0573 52.394 73.0573Z" fill="#7B1111"/>
<path d="M45.5057 37.5C45.6647 37.4534 45.8372 37.4741 45.9813 37.5573M52.699 41.4356C52.8876 41.5444 53.0037 41.7458 53.0037 41.9634L51.7847 42.3156M52.394 73.0573H45.3963C44.7503 73.0573 44.2165 72.5723 44.1544 71.9291L41.9841 49.3231L43.1808 49.0356L45.3676 71.8127C45.3689 71.8273 45.3813 71.8386 45.3963 71.8386H51.7847V47.2166L53.0037 47.029V72.4476C53.0034 72.7846 52.7304 73.0573 52.394 73.0573Z" stroke="#7B1111" stroke-width="0.5"/>
<path d="M57.1284 77.6951H46.7894C46.3324 77.6951 45.8991 77.4964 45.6014 77.1497C45.3038 76.803 45.1721 76.345 45.2407 75.8932L45.7769 72.3563C45.822 72.0584 46.078 71.8384 46.3796 71.8384H52.3941C52.477 71.8384 52.5593 71.8554 52.6358 71.8883L57.0885 73.8103C57.8703 74.1479 58.3761 74.9163 58.3761 75.7685V76.4477C58.3761 77.1354 57.8164 77.6951 57.1284 77.6951ZM46.9034 73.0571L46.4457 76.0763C46.425 76.2137 46.4869 76.31 46.5259 76.3554C46.5646 76.4005 46.6505 76.4763 46.7894 76.4763H57.1284C57.1442 76.4763 57.1573 76.4635 57.1573 76.4474V75.7682C57.1573 75.4032 56.9407 75.0739 56.6055 74.9291L52.2683 73.0568H46.9034V73.0571Z" fill="#7B1111" stroke="#7B1111" stroke-width="0.5"/>
<path d="M14.6625 19.5241C14.1848 19.0293 14.1985 18.238 14.6933 17.7599L19.6853 12.9395C19.9111 12.7216 20.2657 12.7106 20.5043 12.9145L41.5841 30.9282C41.6222 30.9608 41.656 30.998 41.6849 31.0388L40.7346 31.8063L20.1332 14.2015L15.5397 18.6368C15.5284 18.6481 15.5278 18.6664 15.5391 18.6776L34.6101 38.4262L33.4695 38.9997L14.6625 19.5241Z" fill="#7B1111"/>
<path d="M35.5357 41.102C35.4839 41.0731 35.4364 41.0365 35.3953 40.9939M14.6625 19.5241C14.1848 19.0293 14.1985 18.238 14.6933 17.7599L19.6853 12.9395C19.9111 12.7216 20.2657 12.7106 20.5043 12.9145L41.5841 30.9282C41.6222 30.9608 41.656 30.998 41.6849 31.0388L40.7346 31.8063L20.1332 14.2015L15.5397 18.6368C15.5284 18.6481 15.5278 18.6664 15.5391 18.6776L34.6101 38.4262L33.4696 38.9997L14.6625 19.5241Z" stroke="#7B1111" stroke-width="0.5"/>
<path d="M16.9672 17.0205C16.8581 17.0205 16.7484 16.9913 16.65 16.9315L13.6363 15.0943C12.8082 14.5894 12.1248 13.8725 11.6598 13.0212L9.6169 9.27931C9.06937 8.27659 9.3899 7.00177 10.3463 6.37686L11.4438 5.65993C12.2485 5.13404 13.2905 5.18766 14.0373 5.79247L17.4614 8.56604C17.6293 8.70193 17.7758 8.86159 17.8974 9.04013L20.6125 13.0358C20.7791 13.2811 20.745 13.6108 20.5317 13.8167L17.3904 16.8502C17.2737 16.962 17.121 17.0205 16.9672 17.0205ZM12.6501 6.51884C12.4633 6.51884 12.2756 6.57216 12.1105 6.68002L11.013 7.39695C10.5852 7.67635 10.4417 8.24673 10.6867 8.69492L12.7296 12.4368C13.0919 13.1007 13.6251 13.6598 14.2707 14.0535L16.8825 15.6458L19.316 13.2957L16.8892 9.72477C16.8349 9.64494 16.7691 9.57334 16.6942 9.5127L13.2704 6.73944C13.0897 6.59288 12.8703 6.51884 12.6501 6.51884Z" fill="#7B1111" stroke="#7B1111" stroke-width="0.5"/>
<path fill-rule="evenodd" clip-rule="evenodd" d="M40.5988 31.9645C40.6041 31.9752 40.6011 31.9739 40.5882 31.9584L40.5988 31.9645Z" fill="#7B1111"/>
<path d="M52.0895 42.4914C52.1855 42.5472 52.2903 42.5734 52.3936 42.5734C52.6041 42.5734 52.8089 42.464 52.9222 42.2684L53.3384 41.5476C52.9949 39.7869 53.4215 39.4665 54.6078 39.3489C54.6882 39.2087 54.7105 39.0424 54.6684 38.8864C54.2874 39.0133 53.4698 39.2672 53.2473 39.2672L52.1712 41.1313L39.512 33.8225L40.5882 31.9584L40.5988 31.9645C40.5607 31.8881 40.0957 31.2005 39.8371 30.8213L38.1516 33.7408C38.0709 33.881 38.0486 34.0473 38.0907 34.2033C38.1327 34.3593 38.2348 34.4925 38.3746 34.5732L52.0895 42.4914Z" fill="#7B1111"/>
<path d="M53.2473 39.2672L52.1712 41.1313L39.512 33.8225L40.5882 31.9584M53.2473 39.2672C53.4698 39.2672 54.2874 39.0133 54.6684 38.8864C54.7105 39.0424 54.6882 39.2087 54.6078 39.3489C53.4215 39.4665 52.9949 39.7869 53.3384 41.5476L52.9222 42.2684C52.8089 42.464 52.6041 42.5734 52.3936 42.5734C52.2903 42.5734 52.1855 42.5472 52.0895 42.4914L38.3746 34.5732C38.2348 34.4925 38.1327 34.3593 38.0907 34.2033C38.0486 34.0473 38.0709 33.881 38.1516 33.7408L39.8371 30.8213C40.0957 31.2005 40.5607 31.8881 40.5988 31.9645M53.2473 39.2672L40.5988 31.9645M40.5882 31.9584C40.6011 31.9739 40.6041 31.9752 40.5988 31.9645M40.5882 31.9584L40.5988 31.9645" stroke="#7B1111" stroke-width="0.5"/>
<path d="M43.0064 24.6699C42.8605 24.6699 42.7179 24.6175 42.6061 24.52L25.7035 9.78712C25.4647 9.57902 25.425 9.22254 25.6124 8.96751L29.3455 3.8771C29.5423 3.60867 29.918 3.54773 30.1894 3.7403L45.0398 14.2712L47.603 16.6326C47.8596 16.8145 47.9862 16.6542 47.829 16.9266L43.5345 24.3652C43.4433 24.523 43.2864 24.6318 43.107 24.6617C43.0735 24.6671 43.0399 24.6699 43.0064 24.6699ZM26.9265 9.23625L42.8489 23.1148L46.496 16.798L29.9737 5.08123L26.9265 9.23625Z" fill="#7B1111" stroke="#7B1111" stroke-width="0.5"/>
<path d="M40.4723 50.0231C39.6442 50.0231 38.863 49.5518 38.4894 48.7919L33.5983 38.8487C33.4831 38.6147 33.5297 38.3332 33.714 38.1488L38.2484 33.6145C38.4437 33.4195 38.7453 33.3799 38.9839 33.5176L52.6988 41.4358L51.7847 42.3154L38.7795 34.8067L34.8843 38.7022L39.5829 48.2541C39.7755 48.6456 40.2106 48.8656 40.639 48.7897L51.7847 46.8242L53.0035 47.3355C53.0035 47.6313 52.7911 47.8842 52.5002 47.9357L40.851 49.9899C40.7243 50.0125 40.5978 50.0231 40.4723 50.0231Z" fill="#7B1111"/>
<path d="M52.6988 41.4358L38.9839 33.5176C38.7453 33.3799 38.4437 33.4195 38.2484 33.6145L33.714 38.1488C33.5297 38.3332 33.4831 38.6147 33.5983 38.8487L38.4894 48.7919C38.863 49.5518 39.6442 50.0231 40.4723 50.0231C40.5978 50.0231 40.7243 50.0125 40.851 49.9899L52.5002 47.9357C52.7911 47.8842 53.0035 47.6313 53.0035 47.3355L51.7847 46.8242L40.639 48.7897C40.2106 48.8656 39.7755 48.6456 39.5829 48.2541L34.8843 38.7022L38.7795 34.8067L51.7847 42.3154L52.6988 41.4358ZM52.6988 41.4358C52.8874 41.5446 53.0035 41.746 53.0035 41.9635" stroke="#7B1111" stroke-width="0.5"/>
<path d="M54.2703 47.4927C54.1597 47.4927 54.0501 47.4625 53.9541 47.404C53.8103 47.3166 53.7091 47.174 53.6744 47.0097L52.0994 39.5872C52.0297 39.26 52.2372 38.9383 52.5635 38.8657L58.1801 37.6223L57.507 34.6126C57.4738 34.4636 57.4979 34.3073 57.5741 34.1748L62.6063 25.4589C62.7269 25.2505 62.9594 25.1329 63.1968 25.1575C63.4359 25.1822 63.638 25.3452 63.7129 25.5737L68.4941 40.1454C68.7665 40.9748 68.6891 41.8553 68.2768 42.6247C67.8643 43.394 67.1742 43.9461 66.3326 44.1789L54.4324 47.471C54.3797 47.4854 54.3249 47.4927 54.2703 47.4927ZM53.4169 39.9251L54.7319 46.1234L66.0078 43.004C66.5249 42.8611 66.9493 42.5217 67.2028 42.0488C67.456 41.5759 67.5032 41.0348 67.3363 40.5251L62.9801 27.2489L58.7483 34.5785L59.503 37.9523C59.5381 38.1104 59.5091 38.2759 59.4223 38.4124C59.3355 38.5489 59.1981 38.6455 59.0399 38.6802L53.4169 39.9251Z" fill="#7B1111" stroke="#7B1111" stroke-width="0.5"/>
<path d="M26.6789 9.1522C26.5555 9.1522 26.4308 9.11473 26.323 9.03734L22.2341 6.08949C21.8919 5.84269 21.6677 5.47767 21.6025 5.06117C21.5373 4.64466 21.6393 4.22845 21.8895 3.88873L24.0628 0.941791C24.3172 0.596276 24.692 0.375072 25.1176 0.318705C25.5427 0.262033 25.9625 0.378424 26.2986 0.645635L30.216 3.76015C30.4722 3.96368 30.5216 4.33357 30.3281 4.59743L27.1706 8.90328C27.0515 9.06598 26.8662 9.1522 26.6789 9.1522ZM25.3239 1.52344C25.3062 1.52344 25.2907 1.52466 25.2779 1.52649C25.2231 1.5338 25.1198 1.56122 25.0436 1.66481L22.87 4.61175C22.8142 4.68731 22.7917 4.77963 22.8063 4.87195C22.8206 4.96427 22.8706 5.04532 22.9464 5.10017L26.5454 7.69458L28.9987 4.34911L25.5402 1.59931C25.4628 1.53776 25.3821 1.52344 25.3239 1.52344Z" fill="#7B1111" stroke="#7B1111" stroke-width="0.5"/>
<path d="M35.1354 49.2672C34.8256 49.2672 34.5157 49.1533 34.2753 48.9245L32.8524 47.5695C32.6029 47.3319 32.4618 46.9979 32.4651 46.6533C32.4688 46.309 32.6166 45.9781 32.8707 45.7457L43.1009 36.3863C43.2968 36.2071 43.5866 36.1751 43.8169 36.3083L45.9811 37.5578C46.1438 37.6517 46.2541 37.8156 46.2797 38.0017C46.3053 38.1879 46.2443 38.3756 46.1133 38.5103L36.0306 48.891C35.7875 49.1411 35.4614 49.2672 35.1354 49.2672ZM33.6933 46.6869L35.1162 48.0418C35.1278 48.0528 35.1458 48.0525 35.1568 48.0412L44.6944 38.2214L43.5945 37.5865L33.694 46.6445L33.2732 47.1277L33.6933 46.6869Z" fill="#7B1111" stroke="#7B1111" stroke-width="0.5"/>
<path d="M53.6804 39.8734C53.3535 39.8734 53.4739 40.614 53.1832 40.4461L52.1912 39.8734L39.561 32.5812C40.1094 31.9047 40.2424 30.7027 38.8708 30.0054L46.7732 16.3176C46.8543 16.1777 46.9871 16.0757 47.1434 16.0336C47.2997 15.9916 47.3844 16.2369 47.5243 16.318C48.0717 18.2345 50.2552 18.4841 53.504 19.4998L63.439 25.2358C63.7306 25.404 63.8302 25.7766 63.6621 26.0682L56.641 38.229L55.6324 39.0002C55.3807 39.4365 54.1673 39.7433 53.6804 39.8734C53.5183 39.9169 53.844 39.8734 53.6804 39.8734ZM53.7926 39.3907C53.9468 39.4796 54.1269 39.5031 54.299 39.4574C54.4709 39.4114 54.6147 39.3008 54.7036 39.1466L62.3016 25.9865L47.5243 17.4547L39.9263 30.6147C39.837 30.7689 39.8136 30.9487 39.8596 31.1208C39.9056 31.2927 40.0162 31.4368 40.1703 31.5258L53.7926 39.3907Z" fill="#7B1111"/>
<path d="M53.6804 39.8734C53.3535 39.8734 53.4739 40.614 53.1832 40.4461L52.1912 39.8734L39.561 32.5812M53.6804 39.8734C54.1673 39.7433 55.3807 39.4365 55.6324 39.0002L56.641 38.229L63.6621 26.0682C63.8302 25.7766 63.7306 25.404 63.439 25.2358L53.504 19.4998C50.2552 18.4841 48.0717 18.2345 47.5243 16.318C47.3844 16.2369 47.2997 15.9916 47.1434 16.0336C46.9871 16.0757 46.8543 16.1777 46.7732 16.3176L38.8708 30.0054M53.6804 39.8734C53.5183 39.9169 53.844 39.8734 53.6804 39.8734ZM39.561 32.5812C40.1094 31.9047 40.2424 30.7027 38.8708 30.0054M39.561 32.5812L40.1703 31.5258M38.8708 30.0054C38.9742 30.3189 39.6175 30.5423 39.9263 30.6147M39.9263 30.6147L47.5243 17.4547L62.3016 25.9865L54.7036 39.1466C54.6147 39.3008 54.4709 39.4114 54.299 39.4574C54.1269 39.5031 53.9468 39.4796 53.7926 39.3907L40.1703 31.5258M39.9263 30.6147C39.837 30.7689 39.8136 30.9487 39.8596 31.1208C39.9056 31.2927 40.0162 31.4368 40.1703 31.5258" stroke="#7B1111" stroke-width="0.5"/>
<path d="M49.5255 48.4272C48.9506 48.4272 48.4289 48.024 48.3037 47.443L47.5773 44.0805C47.4411 43.4495 47.8183 42.8093 48.4362 42.6228L53.0203 41.2383C53.1833 41.1893 53.3597 41.2103 53.5068 41.2971C53.6534 41.384 53.757 41.5284 53.7926 41.6951L54.8664 46.7565C54.9002 46.9159 54.8691 47.082 54.7792 47.2181C54.6896 47.354 54.5495 47.4488 54.3898 47.4805L49.7674 48.4028C49.6864 48.4195 49.6056 48.4272 49.5255 48.4272ZM52.7381 42.5969L48.7888 43.7898C48.7744 43.7941 48.7656 43.809 48.769 43.8233L49.4953 47.1859C49.4987 47.2014 49.5109 47.2117 49.5292 47.2081L53.5465 46.4065L52.7381 42.5969Z" fill="#7B1111" stroke="#7B1111" stroke-width="0.5"/>
<path d="M47.4107 54.1665H45.4912C45.1499 54.1665 44.8196 54.0242 44.5847 53.7762C44.3501 53.5285 44.2264 53.1906 44.2453 52.8496L45.0676 38.0512C45.0795 37.8398 45.2002 37.6497 45.3863 37.5491C45.5722 37.4483 45.7974 37.4513 45.9808 37.5573L48.3534 38.9272C48.542 39.036 48.6581 39.2374 48.6581 39.4549V52.9188C48.6584 53.6068 48.0987 54.1665 47.4107 54.1665ZM46.23 39.1082L45.4625 52.9172L45.4915 52.9477H47.411C47.4268 52.9477 47.4399 52.9349 47.4399 52.9188V39.8065L46.23 39.1082Z" fill="#7B1111" stroke="#7B1111" stroke-width="0.5"/>
<path d="M52.1339 19.6012C48.031 19.6012 44.6931 16.2633 44.6931 12.1604V9.25034C44.6931 5.14742 48.031 1.80957 52.1339 1.80957C56.2368 1.80957 59.5747 5.14773 59.5747 9.25034V12.1604C59.5747 16.2633 56.2368 19.6012 52.1339 19.6012ZM52.1339 3.02802C48.7031 3.02802 45.9119 5.81926 45.9119 9.25004V12.1601C45.9119 15.5909 48.7031 18.3821 52.1339 18.3821C55.5647 18.3821 58.3559 15.5909 58.3559 12.1601V9.25034C58.3559 5.81956 55.5647 3.02802 52.1339 3.02802Z" fill="#7B1111"/>
<path d="M50.5331 26.4672C50.6257 26.5193 50.7287 26.5452 50.8314 26.5452C50.9414 26.5452 51.0513 26.5153 51.1485 26.4562L57.274 22.7232C57.4556 22.6126 57.5662 22.4155 57.5662 22.2028V17.2402C57.1994 17.6323 56.7907 17.9847 56.3474 18.2903V21.8606L51.4407 24.8508V19.5692C51.0236 19.5305 50.6164 19.4572 50.222 19.3522V25.9358C50.222 26.1561 50.3411 26.3593 50.5331 26.4672Z" fill="#7B1111"/>
<path fill-rule="evenodd" clip-rule="evenodd" d="M51.4407 19.5692C51.669 19.5904 51.9002 19.6012 52.1339 19.6012C53.6968 19.6012 55.1487 19.1168 56.3474 18.2903L51.4407 19.5692Z" fill="#7B1111"/>
<path d="M50.5331 26.4672L50.6556 26.2493L50.6555 26.2492L50.5331 26.4672ZM50.222 19.3522L50.2658 19.1061L49.972 19.0538V19.3522H50.222ZM57.5662 17.2402H57.8162V16.6948L57.403 17.0508L57.5662 17.2402ZM57.274 22.7232L57.1439 22.5097L57.1439 22.5097L57.274 22.7232ZM51.1485 26.4562L51.2784 26.6698L51.2786 26.6697L51.1485 26.4562ZM51.4407 24.8508H51.1907V25.2959L51.5708 25.0643L51.4407 24.8508ZM56.3474 21.8606L56.4775 22.0741L56.5974 22.001V21.8606H56.3474ZM50.8314 26.2952C50.7706 26.2952 50.71 26.2799 50.6556 26.2493L50.4105 26.6851C50.5414 26.7587 50.6867 26.7952 50.8314 26.7952V26.2952ZM50.6555 26.2492C50.5422 26.1856 50.472 26.0656 50.472 25.9358H49.972C49.972 26.2466 50.14 26.5331 50.4106 26.6851L50.6555 26.2492ZM50.472 25.9358V19.3522H49.972V25.9358H50.472ZM57.3162 17.2402V22.2028H57.8162V17.2402H57.3162ZM57.3162 22.2028C57.3162 22.3284 57.2509 22.4445 57.1439 22.5097L57.404 22.9367C57.6602 22.7807 57.8162 22.5026 57.8162 22.2028H57.3162ZM57.1439 22.5097L51.0184 26.2427L51.2786 26.6697L57.4041 22.9367L57.1439 22.5097ZM51.0186 26.2426C50.9611 26.2776 50.8962 26.2952 50.8314 26.2952V26.7952C50.9865 26.7952 51.1415 26.7531 51.2784 26.6698L51.0186 26.2426ZM51.1907 19.5692V24.8508H51.6907V19.5692H51.1907ZM51.5708 25.0643L56.4775 22.0741L56.2173 21.6471L51.3106 24.6373L51.5708 25.0643ZM56.5974 21.8606V18.2903H56.0974V21.8606H56.5974ZM56.2844 18.0484L51.3777 19.3273L51.5038 19.8111L56.4105 18.5323L56.2844 18.0484ZM52.1339 19.3512C48.169 19.3512 44.9431 16.1253 44.9431 12.1604H44.4431C44.4431 16.4014 47.8929 19.8512 52.1339 19.8512V19.3512ZM44.9431 12.1604V9.25034H44.4431V12.1604H44.9431ZM44.9431 9.25034C44.9431 5.28549 48.169 2.05957 52.1339 2.05957V1.55957C47.8929 1.55957 44.4431 5.00935 44.4431 9.25034H44.9431ZM52.1339 2.05957C56.0987 2.05957 59.3247 5.28579 59.3247 9.25034H59.8247C59.8247 5.00966 56.3749 1.55957 52.1339 1.55957V2.05957ZM59.3247 9.25034V12.1604H59.8247V9.25034H59.3247ZM59.3247 12.1604C59.3247 16.1253 56.0987 19.3512 52.1339 19.3512V19.8512C56.3749 19.8512 59.8247 16.4014 59.8247 12.1604H59.3247ZM52.1339 2.77802C48.565 2.77802 45.6619 5.68118 45.6619 9.25004H46.1619C46.1619 5.95733 48.8412 3.27802 52.1339 3.27802V2.77802ZM45.6619 9.25004V12.1601H46.1619V9.25004H45.6619ZM45.6619 12.1601C45.6619 15.729 48.565 18.6321 52.1339 18.6321V18.1321C48.8412 18.1321 46.1619 15.4528 46.1619 12.1601H45.6619ZM52.1339 18.6321C55.7027 18.6321 58.6059 15.729 58.6059 12.1601H58.1059C58.1059 15.4528 55.4266 18.1321 52.1339 18.1321V18.6321ZM58.6059 12.1601V9.25034H58.1059V12.1601H58.6059ZM58.6059 9.25034C58.6059 5.68151 55.7028 2.77802 52.1339 2.77802V3.27802C55.4266 3.27802 58.1059 5.95762 58.1059 9.25034H58.6059ZM57.403 17.0508L56.1842 18.1009L56.5106 18.4797L57.7294 17.4296L57.403 17.0508ZM51.4845 19.323L50.2658 19.1061L50.1782 19.5984L51.3969 19.8153L51.4845 19.323ZM57.3836 17.0694C57.029 17.4484 56.634 17.7891 56.2055 18.0845L56.4893 18.4962C56.9474 18.1803 57.3697 17.8161 57.7487 17.4111L57.3836 17.0694ZM51.4638 19.3202C51.0608 19.2828 50.6673 19.212 50.2863 19.1106L50.1577 19.5938C50.5655 19.7023 50.9865 19.7781 51.4176 19.8181L51.4638 19.3202ZM51.4176 19.8181C51.6536 19.84 51.8925 19.8512 52.1339 19.8512V19.3512C51.9079 19.3512 51.6844 19.3407 51.4638 19.3202L51.4176 19.8181ZM52.1339 19.8512C53.7493 19.8512 55.2504 19.3504 56.4893 18.4962L56.2055 18.0845C55.0471 18.8832 53.6444 19.3512 52.1339 19.3512V19.8512Z" fill="#7B1111"/>
<path d="M55.5133 13.2958C55.1781 13.2958 54.8554 13.2114 54.5532 13.0453C54.2582 12.8832 54.1507 12.5124 54.3131 12.2178C54.4749 11.9229 54.8457 11.8156 55.1406 11.9774C55.261 12.0435 55.3865 12.077 55.5136 12.077C56.1114 12.077 56.6162 11.336 56.6162 10.4588C56.6162 9.58164 56.1114 8.84064 55.5136 8.84064C55.1644 8.84064 54.9145 9.0917 54.7966 9.2413C54.5882 9.50577 54.2052 9.55117 53.9408 9.34276C53.6763 9.13436 53.6306 8.75136 53.839 8.48689C54.2784 7.92901 54.8734 7.62158 55.5133 7.62158C56.7932 7.62158 57.8347 8.89426 57.8347 10.4585C57.8347 12.0228 56.7932 13.2958 55.5133 13.2958Z" fill="#7B1111" stroke="#7B1111" stroke-width="0.5"/>
<path d="M49.4624 11.3221C50.0161 11.3221 50.4652 10.8733 50.4652 10.3194V9.1165C50.4652 8.56288 50.0164 8.11377 49.4624 8.11377C48.9088 8.11377 48.4597 8.56257 48.4597 9.1165V10.3194C48.4597 10.8733 48.9085 11.3221 49.4624 11.3221Z" fill="#7B1111" stroke="#7B1111" stroke-width="0.5"/>
<path d="M48.4756 15.0396H47.4731C47.1368 15.0396 46.8638 14.7666 46.8638 14.4302C46.8638 14.0938 47.1368 13.8208 47.4731 13.8208H48.4756C48.8119 13.8208 49.0849 14.0938 49.0849 14.4302C49.0849 14.7666 48.8119 15.0396 48.4756 15.0396Z" fill="#7B1111" stroke="#7B1111" stroke-width="0.5"/>
<path d="M40.1178 32.808C39.9082 32.808 39.7047 32.6999 39.591 32.5061C39.421 32.2154 39.5191 31.8422 39.8095 31.6725L50.5235 25.4096L56.6395 21.6824C56.9271 21.5072 57.3019 21.5983 57.4771 21.8856C57.652 22.1729 57.5612 22.548 57.2739 22.7232L51.1484 26.4562L40.4249 32.7246C40.3281 32.7812 40.2223 32.808 40.1178 32.808Z" fill="#7B1111" stroke="#7B1111" stroke-width="0.5"/>
</svg>
