<svg width="69" height="68" viewBox="0 0 69 68" fill="none" xmlns="http://www.w3.org/2000/svg">
<g clip-path="url(#clip0)">
<path d="M17.5021 10.3634C17.9835 10.6446 18.6005 10.4819 18.8812 10.0006C21.7282 5.11692 26.9804 2.08277 32.5902 2.08277H35.4887C44.2304 2.08277 51.3431 9.19538 51.3431 17.9376V20.5346C51.3431 21.0913 51.7948 21.5425 52.3515 21.5425C52.9077 21.5425 53.3594 21.0913 53.3594 20.5346V17.9376C53.3594 8.0835 45.3423 0.0664062 35.4887 0.0664062H32.5902C26.2667 0.0664062 20.345 3.48366 17.1393 8.98434C16.8581 9.46568 17.0208 10.0827 17.5021 10.3634Z" fill="#7B1111"/>
<path d="M34.7974 9.82624C34.2947 9.74151 33.7843 9.74151 33.2811 9.82624C26.8286 10.9137 23.0434 12.3588 21.0026 13.3792C19.4982 14.1334 18.5626 15.6513 18.5626 17.3407V20.774C18.5626 22.675 19.7727 24.3634 21.5723 24.9736C32.9125 28.736 32.7176 28.946 34.0395 28.946C35.3614 28.946 35.1467 28.7428 46.5062 24.9736C48.3063 24.3634 49.5165 22.675 49.5165 20.774V17.3407C49.5165 15.6513 48.5808 14.1334 47.0749 13.3792C45.0357 12.3588 41.2504 10.9137 34.7974 9.82624ZM47.5001 20.774C47.5001 21.8106 46.8399 22.7317 45.8585 23.0633L34.8473 26.7982C34.3259 26.9754 33.752 26.9754 33.2317 26.7982L22.2205 23.0633C21.2391 22.7317 20.5789 21.8106 20.5789 20.774V17.3407C20.5789 16.4185 21.0873 15.592 21.906 15.1834C23.8231 14.2234 27.4093 12.8604 33.6159 11.8145C33.8903 11.7698 34.1679 11.7662 34.4632 11.8145C38.159 12.4373 42.8192 13.5039 46.173 15.1834C46.9917 15.592 47.5001 16.4185 47.5001 17.3407V20.774Z" fill="#7B1111"/>
<path d="M27.9748 18.8069C27.9748 19.6407 27.2991 20.3164 26.4653 20.3164C25.6315 20.3164 24.9557 19.6407 24.9557 18.8069C24.9557 17.9731 25.6315 17.2974 26.4653 17.2974C27.2991 17.2974 27.9748 17.9731 27.9748 18.8069Z" fill="#7B1111"/>
<path d="M43.1232 18.8069C43.1232 19.6407 42.447 20.3164 41.6137 20.3164C40.7799 20.3164 40.1036 19.6407 40.1036 18.8069C40.1036 17.9731 40.7799 17.2974 41.6137 17.2974C42.447 17.2974 43.1232 17.9731 43.1232 18.8069Z" fill="#7B1111"/>
<path d="M61.3324 48.5214C61.8044 46.8143 62.2644 45.0677 62.7078 43.2936C64.9399 43.6892 65.0023 43.7438 65.4124 43.7438C65.9608 43.7438 66.4973 43.5769 66.9599 43.2583C68.955 41.8792 68.2761 38.766 65.9005 38.3304L64.4799 38.071L64.9087 35.5863L67.3659 21.3611C67.5499 20.3017 67.3066 19.2319 66.6844 18.3488C64.5838 15.3697 60.0126 16.5076 59.4075 19.9862L56.535 36.6176C54.5634 36.2694 54.474 36.2101 54.0654 36.2101C53.3813 36.2101 52.7373 36.4684 52.2481 36.9082C53.9552 32.9602 53.1521 30.1595 53.3595 24.5673C53.3595 24.0095 52.9078 23.5594 52.3516 23.5594C51.7948 23.5594 51.3431 24.0095 51.3431 24.5673V31.5188C51.3431 37.9094 46.1554 43.1091 39.769 43.1294C38.3504 43.1294 29.7812 43.1294 28.3466 43.1294C21.9435 43.1294 16.736 37.9213 16.736 31.5188V17.9376C16.736 16.4197 16.9522 14.9169 17.3795 13.4719C17.5386 12.938 17.2334 12.3771 16.6996 12.2186C16.1658 12.0616 15.6038 12.3652 15.4468 12.9001C14.9639 14.5307 14.7196 16.2258 14.7196 17.9376V31.5188C14.7196 33.4005 15.1027 35.1954 15.7962 36.8271C15.1979 36.3395 14.3968 36.1056 13.5797 36.2558L11.6033 36.6176L8.73033 19.9862C8.12267 16.4899 3.53946 15.3915 1.45397 18.3488C0.831753 19.2319 0.58796 20.3017 0.772494 21.3611C1.05059 22.972 3.38352 36.4783 3.6585 38.071L2.23785 38.3304C0.757419 38.6018 -0.226589 40.0255 0.045274 41.5054C0.175747 42.2207 0.577564 42.8429 1.17847 43.2583C1.64058 43.5769 2.17703 43.7438 2.72544 43.7438C3.13609 43.7438 3.19535 43.6897 5.43055 43.2936C5.87395 45.0677 6.33347 46.8143 6.80546 48.5214C-0.773953 55.6501 0.709077 64.4625 0.53182 65.4408C0.53182 66.8859 1.70816 68.0617 3.15324 68.0617H64.9851C66.4302 68.0617 67.6066 66.8859 67.6066 65.4408C67.4225 64.4251 68.904 55.6423 61.3324 48.5214ZM62.357 18.9388C63.2188 18.4231 64.3442 18.6123 64.9836 19.4383L62.357 18.9388ZM61.0247 22.4756L61.3152 20.7934L65.2877 21.5487V21.5493L64.9971 23.2309L61.0247 22.4756ZM60.3874 26.1657L60.6821 24.4633L64.653 25.2181L64.3588 26.921L60.3874 26.1662V26.1657ZM60.0433 28.154L60.0438 28.1535L64.0157 28.9088L63.7173 30.6403L59.7454 29.885L60.0433 28.154ZM59.4008 31.8723L63.3732 32.6275V32.6281L63.0992 34.2166L59.1268 33.4613L59.4008 31.8723ZM58.7827 35.4481L62.7562 36.2039L62.4952 37.7077L58.5192 36.9805L58.7827 35.4481ZM53.3662 38.8113C53.4375 38.4256 53.8086 38.1688 54.1959 38.2389C57.0361 38.7582 62.1428 39.6929 65.5377 40.3146C66.1474 40.4248 66.3434 41.231 65.8132 41.598C65.4654 41.8387 66.294 41.9026 53.9391 39.6398C53.5534 39.5697 53.2966 39.1975 53.3662 38.8113ZM60.7211 42.9303C60.3676 44.3379 60.0043 45.7263 59.6336 47.0924C58.8092 46.4728 57.9354 45.9161 57.02 45.4295C57.2997 44.4024 57.5617 43.3903 57.8039 42.3969L60.7211 42.9303ZM51.3592 38.6194C51.1898 40.0359 52.1525 41.363 53.5763 41.624L55.8172 42.0336C55.6129 42.8658 55.3961 43.71 55.1664 44.5651C50.8753 42.8273 47.4263 43.173 46.8587 43.1294C48.6895 42.0029 50.2354 40.4528 51.3592 38.6194ZM37.3357 45.1457L34.0692 48.4122L30.8027 45.1457H37.3357ZM27.951 45.1457L32.6444 49.8386L29.3696 53.1134L21.4018 45.1457H27.951ZM16.7911 38.7333C17.9082 40.5173 19.4271 42.0258 21.2204 43.1294C20.6346 43.1351 19.9505 43.108 18.9431 43.1803C16.8436 43.331 14.8376 43.8098 12.972 44.5651C12.7417 43.71 12.5255 42.8658 12.3212 42.0336L14.5621 41.624C15.9609 41.3677 16.8971 40.0895 16.7911 38.7333ZM9.61921 36.9805L5.64263 37.7077L5.38169 36.2039L9.35567 35.4481L9.61921 36.9805ZM8.73709 31.8723L9.01155 33.4613L5.03913 34.2161C4.86967 33.2336 4.93465 33.611 4.76467 32.6275L8.73709 31.8723ZM8.39297 29.885L4.42055 30.6403L4.1227 28.9088L8.0946 28.1535C8.27341 29.1916 8.21415 28.848 8.39297 29.885ZM5.78142 18.9388V18.9393L3.1548 19.4383C3.78326 18.6263 4.90554 18.4148 5.78142 18.9388ZM2.85071 21.5487L6.82313 20.7934L7.11319 22.4756L3.14077 23.2309C2.96923 22.2375 3.02277 22.5452 2.85071 21.5487ZM3.4854 25.2181L7.45626 24.4633L7.75048 26.1657V26.1662L3.77962 26.9215C3.59716 25.8674 3.66734 26.2728 3.4854 25.2181ZM2.32518 41.598C1.79497 41.231 1.99146 40.4248 2.60068 40.3146C14.8329 38.0747 13.9659 38.228 14.0714 38.228C14.9353 38.228 15.045 39.4865 14.1993 39.6398C1.89113 41.8938 2.67345 41.8392 2.32518 41.598ZM11.1178 45.4295C10.2024 45.9161 9.32863 46.4728 8.50473 47.0924C8.13358 45.7263 7.77075 44.3379 7.41728 42.9303L10.3345 42.3969C10.5762 43.3903 10.8382 44.4024 11.1178 45.4295ZM19.2872 66.0454L23.1281 62.206C23.5206 61.8125 23.5206 61.1737 23.1266 60.7796C22.7341 60.3861 22.0953 60.3861 21.7018 60.7796L16.4376 66.0454H3.15324C2.82524 66.0454 2.54818 65.7688 2.54818 65.4408C2.72492 64.3451 1.40823 57.1144 7.43339 50.7394C10.2721 47.7235 14.2149 45.6593 18.6354 45.2304L27.9432 54.5382L24.553 57.9285C24.1589 58.3225 24.1589 58.9598 24.553 59.3538C24.947 59.7473 25.5853 59.7473 25.9793 59.3538C25.9908 59.3418 25.9991 59.3335 26.0058 59.3268C26.0214 59.3112 26.0256 59.307 26.0245 59.3081C26.1992 59.1339 27.8413 57.4918 40.1869 45.1457H46.7365C26.0386 65.8437 28.5165 63.3657 25.8369 66.0454H19.2872ZM65.5902 65.4408C65.5902 65.7688 65.3131 66.0454 64.9851 66.0454H28.6881C31.2336 63.4998 46.9564 47.777 49.503 45.2304C53.8783 45.6551 57.8325 47.6881 60.705 50.7394C66.7301 57.115 65.4124 64.3393 65.5902 65.4408Z" fill="#7B1111"/>
</g>
<defs>
<clipPath id="clip0">
<rect width="68.133" height="68" fill="white"/>
</clipPath>
</defs>
</svg>
