<svg width="68" height="68" viewBox="0 0 68 68" fill="none" xmlns="http://www.w3.org/2000/svg">
<path d="M3.4 22.1002H4.53333V26.6336C4.53333 27.2594 5.04079 27.7669 5.66667 27.7669H14.7333C15.3592 27.7669 15.8667 27.2594 15.8667 26.6336V22.1002H17C18.8776 22.1002 20.4 20.5779 20.4 18.7002V16.4336C20.3956 13.08 17.9474 10.2301 14.6326 9.721C15.4262 8.73099 15.8611 7.50192 15.8667 6.23356C15.8667 3.10417 13.3294 0.566895 10.2 0.566895C7.07061 0.566895 4.53333 3.10417 4.53333 6.23356C4.53887 7.50192 4.97383 8.73099 5.76738 9.721C2.4526 10.2301 0.00442708 13.08 0 16.4336V18.7002C0 20.5779 1.52236 22.1002 3.4 22.1002ZM10.2 2.83356C12.0776 2.83356 13.6 4.35592 13.6 6.23356C13.6 8.1112 12.0776 9.63356 10.2 9.63356C8.32236 9.63356 6.8 8.1112 6.8 6.23356C6.8 4.35592 8.32236 2.83356 10.2 2.83356ZM2.26667 16.4336C2.26667 13.93 4.29648 11.9002 6.8 11.9002H9.06667V15.3002H11.3333V11.9002H13.6C16.1035 11.9002 18.1333 13.93 18.1333 16.4336V18.7002C18.1333 19.3261 17.6259 19.8336 17 19.8336H15.8667V16.4336H13.6V25.5002H6.8V16.4336H4.53333V19.8336H3.4C2.77412 19.8336 2.26667 19.3261 2.26667 18.7002V16.4336Z" fill="#7B1111"/>
<path d="M52.1334 6.23356C52.139 7.50192 52.5739 8.73099 53.3675 9.721C50.0527 10.2301 47.6045 13.08 47.6001 16.4336V18.7002C47.6001 20.5779 49.1225 22.1002 51.0001 22.1002H52.1334V26.6336C52.1334 27.2594 52.6409 27.7669 53.2668 27.7669H62.3334C62.9593 27.7669 63.4668 27.2594 63.4668 26.6336V22.1002H64.6001C66.4777 22.1002 68.0001 20.5779 68.0001 18.7002V16.4336C67.9957 13.08 65.5475 10.2301 62.2327 9.721C63.0263 8.73099 63.4612 7.50192 63.4668 6.23356C63.4668 3.10417 60.9295 0.566895 57.8001 0.566895C54.6707 0.566895 52.1334 3.10417 52.1334 6.23356ZM65.7334 16.4336V18.7002C65.7334 19.3261 65.226 19.8336 64.6001 19.8336H63.4668V16.4336H61.2001V25.5002H54.4001V16.4336H52.1334V19.8336H51.0001C50.3742 19.8336 49.8668 19.3261 49.8668 18.7002V16.4336C49.8668 13.93 51.8966 11.9002 54.4001 11.9002H56.6668V15.3002H58.9334V11.9002H61.2001C63.7036 11.9002 65.7334 13.93 65.7334 16.4336ZM57.8001 2.83356C59.6777 2.83356 61.2001 4.35592 61.2001 6.23356C61.2001 8.1112 59.6777 9.63356 57.8001 9.63356C55.9225 9.63356 54.4001 8.1112 54.4001 6.23356C54.4001 4.35592 55.9225 2.83356 57.8001 2.83356Z" fill="#7B1111"/>
<path d="M3.4 61.7667H4.53333V66.3001C4.53333 66.9259 5.04079 67.4334 5.66667 67.4334H14.7333C15.3592 67.4334 15.8667 66.9259 15.8667 66.3001V61.7667H17C18.8776 61.7667 20.4 60.2444 20.4 58.3667V56.1001C20.3956 52.7466 17.9474 49.8966 14.6326 49.3875C15.4262 48.3975 15.8611 47.1684 15.8667 45.9001C15.8667 42.7707 13.3294 40.2334 10.2 40.2334C7.07061 40.2334 4.53333 42.7707 4.53333 45.9001C4.53887 47.1684 4.97383 48.3975 5.76738 49.3875C2.4526 49.8966 0.00442708 52.7466 0 56.1001V58.3667C0 60.2444 1.52236 61.7667 3.4 61.7667ZM10.2 42.5001C12.0776 42.5001 13.6 44.0224 13.6 45.9001C13.6 47.7777 12.0776 49.3001 10.2 49.3001C8.32236 49.3001 6.8 47.7777 6.8 45.9001C6.8 44.0224 8.32236 42.5001 10.2 42.5001ZM2.26667 56.1001C2.26667 53.5966 4.29648 51.5667 6.8 51.5667H9.06667V54.9667H11.3333V51.5667H13.6C16.1035 51.5667 18.1333 53.5966 18.1333 56.1001V58.3667C18.1333 58.9926 17.6259 59.5001 17 59.5001H15.8667V56.1001H13.6V65.1667H6.8V56.1001H4.53333V59.5001H3.4C2.77412 59.5001 2.26667 58.9926 2.26667 58.3667V56.1001Z" fill="#7B1111"/>
<path d="M68.0001 56.1001C67.9957 52.7466 65.5475 49.8966 62.2327 49.3875C63.0263 48.3975 63.4612 47.1684 63.4668 45.9001C63.4668 42.7707 60.9295 40.2334 57.8001 40.2334C54.6707 40.2334 52.1334 42.7707 52.1334 45.9001C52.139 47.1684 52.5739 48.3975 53.3675 49.3875C50.0527 49.8966 47.6045 52.7466 47.6001 56.1001V58.3667C47.6001 60.2444 49.1225 61.7667 51.0001 61.7667H52.1334V66.3001C52.1334 66.9259 52.6409 67.4334 53.2668 67.4334H62.3334C62.9593 67.4334 63.4668 66.9259 63.4668 66.3001V61.7667H64.6001C66.4777 61.7667 68.0001 60.2444 68.0001 58.3667V56.1001ZM57.8001 42.5001C59.6777 42.5001 61.2001 44.0224 61.2001 45.9001C61.2001 47.7777 59.6777 49.3001 57.8001 49.3001C55.9225 49.3001 54.4001 47.7777 54.4001 45.9001C54.4001 44.0224 55.9225 42.5001 57.8001 42.5001ZM65.7334 58.3667C65.7334 58.9926 65.226 59.5001 64.6001 59.5001H63.4668V56.1001H61.2001V65.1667H54.4001V56.1001H52.1334V59.5001H51.0001C50.3742 59.5001 49.8668 58.9926 49.8668 58.3667V56.1001C49.8668 53.5966 51.8966 51.5667 54.4001 51.5667H56.6668V54.9667H58.9334V51.5667H61.2001C63.7036 51.5667 65.7334 53.5966 65.7334 56.1001V58.3667Z" fill="#7B1111"/>
<path d="M6.05896 29.8452C5.53601 32.9713 5.53601 36.1621 6.05896 39.2882L8.29353 38.9119C7.81319 36.0348 7.81319 33.0986 8.29353 30.2215L6.05896 29.8452Z" fill="#7B1111"/>
<path d="M61.9409 39.2882C62.4638 36.1621 62.4638 32.9713 61.9409 29.8452L59.7063 30.2215C60.1866 33.0986 60.1866 36.0348 59.7063 38.9119L61.9409 39.2882Z" fill="#7B1111"/>
<path d="M45.9465 11.3919L46.9869 9.37815C38.8366 5.18515 29.1634 5.18515 21.0132 9.37815L22.0535 11.3919C29.5508 7.53593 38.4493 7.53593 45.9465 11.3919Z" fill="#7B1111"/>
<path d="M45.3401 60.5393L44.4336 58.4619C37.7797 61.3572 30.2227 61.3572 23.5688 58.4619L22.6624 60.5393C29.8945 63.687 38.1101 63.687 45.3423 60.5393H45.3401Z" fill="#7B1111"/>
<path d="M34 50.4335C42.7628 50.4335 49.8666 43.3297 49.8666 34.5669C49.8666 25.804 42.7628 18.7002 34 18.7002C25.2371 18.7002 18.1333 25.804 18.1333 34.5669C18.1427 43.3258 25.241 50.4241 34 50.4335ZM36.2666 47.9616V46.4669L40.3467 43.4066C40.7867 43.0801 40.93 42.4847 40.6865 41.9938L39.831 40.2833L42.7097 35.4733L45.2531 34.4534L47.559 35.3604C47.1844 41.6762 42.5038 46.8996 36.2666 47.9616ZM47.4865 32.9017L45.662 32.1856C45.3942 32.0799 45.0959 32.0799 44.8281 32.1856L41.5116 33.5127C41.282 33.6045 41.0883 33.7689 40.961 33.9808L37.561 39.6475C37.3612 39.9795 37.3446 40.3912 37.5178 40.7377L38.2284 42.1593L34.4532 44.9937C34.1682 45.2074 34 45.5433 34 45.9002V48.1669C29.6697 48.1663 25.5985 46.1033 23.0368 42.6114C20.4758 39.1201 19.7298 34.6178 21.0292 30.4868L23.9134 31.9228L24.9516 38.1561C24.9992 38.4433 25.1563 38.7012 25.3887 38.8755L29.9221 42.2755C30.1185 42.4227 30.357 42.5024 30.6022 42.5024C30.6603 42.5024 30.7184 42.498 30.7754 42.4891C31.077 42.4421 31.3465 42.2755 31.5236 42.0276L37.1902 34.0943C37.328 33.9017 37.4011 33.6704 37.4 33.4335V28.9002C37.4 28.5023 37.1913 28.1338 36.8505 27.929L31.4671 24.6978L29.9199 21.5961C33.7703 20.3836 37.96 20.9458 41.3545 23.13C44.7484 25.3148 46.9957 28.8952 47.4865 32.9017ZM27.8175 22.4688L29.5856 26.0065C29.6819 26.1997 29.8313 26.3607 30.0161 26.4714L35.1333 29.5416V33.0711L30.3515 39.7643L27.1103 37.3321L26.0506 30.9854C25.9914 30.6279 25.7639 30.3202 25.4396 30.158L21.9019 28.3889C23.2067 25.8461 25.2753 23.7753 27.8175 22.4688Z" fill="#7B1111"/>
</svg>
