<svg width="68" height="68" viewBox="0 0 68 68" fill="none" xmlns="http://www.w3.org/2000/svg">
<path d="M0.822241 11.2878C4.0683 13.0659 6.72242 15.7243 8.49773 18.9755C8.7753 19.4837 9.30708 19.7994 9.88588 19.7994C10.4645 19.7994 10.9965 19.4837 11.2739 18.9755C13.0493 15.7244 15.7035 13.0661 18.9494 11.288C19.4566 11.0101 19.7716 10.4781 19.7716 9.89956C19.7716 9.32103 19.4565 8.78911 18.9494 8.5114C15.7035 6.73331 13.0492 4.07494 11.2739 0.823702C10.9963 0.315562 10.4645 0 9.88588 0C9.30722 0 8.7753 0.315562 8.49773 0.823834C6.72242 4.07508 4.06817 6.73345 0.822241 8.5114C0.315031 8.78911 0 9.32103 0 9.89969C0 10.4781 0.315031 11.0103 0.822241 11.2878ZM9.88588 2.4128C11.7122 5.50321 14.2764 8.07087 17.3625 9.89969C14.2764 11.7285 11.7123 14.2962 9.88588 17.3866C8.05944 14.2962 5.49524 11.7286 2.40921 9.89969C5.49524 8.07113 8.05944 5.50321 9.88588 2.4128Z" fill="#7B1111"/>
<path d="M18.5039 37.0648H17.1348V28.8396C17.1348 27.8961 16.7467 26.9741 16.0699 26.31C15.402 25.6547 14.5295 25.3036 13.6084 25.3208C13.0359 25.3317 12.4963 25.4846 12.0228 25.7453C11.8455 25.2174 11.545 24.7309 11.1423 24.3359C10.4744 23.6806 9.60114 23.3288 8.68076 23.3469C6.8097 23.3824 5.2874 24.9358 5.2874 26.8099V28.6122C4.86015 28.4093 4.38547 28.2916 3.88623 28.2822C2.96478 28.2636 2.09247 28.6159 1.42469 29.2712C0.74788 29.9353 0.359802 30.8571 0.359802 31.8008V44.0834C0.359802 48.0492 2.51362 51.5185 5.70975 53.3866V64.4253C5.70975 66.3962 7.31146 67.9998 9.28027 67.9998C9.83038 67.9998 10.2764 67.5538 10.2764 67.0037C10.2764 66.4536 9.83038 66.0076 9.28027 66.0076C8.40995 66.0076 7.70193 65.2978 7.70193 64.4253V54.2917C8.77399 54.6518 9.91963 54.8498 11.1111 54.8498H11.311C12.5026 54.8498 13.6481 54.6518 14.7201 54.2917V64.4253C14.7201 65.2978 14.0121 66.0076 13.1418 66.0076C12.5917 66.0076 12.1457 66.4536 12.1457 67.0037C12.1457 67.5538 12.5917 67.9998 13.1418 67.9998C15.1106 67.9998 16.7123 66.3962 16.7123 64.4253V53.3866C19.9086 51.5185 22.0624 48.0492 22.0624 44.0834V40.6272C22.0624 38.6629 20.4661 37.0648 18.5039 37.0648ZM11.311 52.8576H11.1111C6.28124 52.8576 2.35185 48.9215 2.35185 44.0832V31.8006C2.35185 31.3885 2.52238 30.9849 2.81975 30.6931C3.09613 30.4219 3.45101 30.2735 3.82182 30.2735C3.83058 30.2735 3.83935 30.2737 3.84825 30.2738C4.6418 30.289 5.28727 30.9489 5.28727 31.7451V40.1351C5.28727 40.6852 5.73325 41.1312 6.28336 41.1312C6.83347 41.1312 7.27945 40.6852 7.27945 40.1351V31.7451V31.4544V26.8099C7.27945 26.0137 7.92492 25.3538 8.71847 25.3386C9.09739 25.3331 9.46395 25.4804 9.74697 25.7579C10.0443 26.0497 10.2149 26.4533 10.2149 26.8655V28.5878V28.7841V40.1351C10.2149 40.6852 10.6609 41.1312 11.211 41.1312C11.7611 41.1312 12.2071 40.6852 12.2071 40.1351V28.7841C12.2071 27.9878 12.8525 27.3279 13.6459 27.3128C14.0268 27.3081 14.3915 27.4545 14.6744 27.7322C14.9718 28.024 15.1423 28.4276 15.1423 28.8397V38.061V43.6713L12.9698 45.8473C12.5812 46.2367 12.5816 46.8673 12.9709 47.256C13.1653 47.4502 13.42 47.5471 13.6746 47.5471C13.9298 47.5471 14.185 47.4496 14.3796 47.2548L16.8434 44.7871C17.0506 44.5796 17.1461 44.3034 17.1321 44.0318C17.1329 44.0156 17.1345 43.9996 17.1345 43.9832V39.057H18.5037C19.3674 39.057 20.0699 39.7614 20.0699 40.6272V44.0834H20.0702C20.0702 48.9216 16.1408 52.8576 11.311 52.8576Z" fill="#7B1111"/>
<path d="M30.8871 32.1625C29.5837 31.4485 28.5179 30.381 27.805 29.0755C27.586 28.6745 27.1661 28.4253 26.7093 28.4253C26.2524 28.4253 25.8326 28.6743 25.6136 29.0754C24.9006 30.381 23.8348 31.4485 22.5315 32.1624C22.1314 32.3815 21.8827 32.8012 21.8826 33.2575C21.8826 33.714 22.1311 34.1338 22.5314 34.3531C23.8347 35.067 24.9005 36.1345 25.6136 37.4401C25.8326 37.8412 26.2524 38.0903 26.7093 38.0903C27.1661 38.0903 27.586 37.8413 27.805 37.4401C28.5179 36.1345 29.5837 35.067 30.8873 34.353C31.2874 34.1337 31.5358 33.7139 31.5358 33.2575C31.5358 32.8013 31.2872 32.3816 30.8871 32.1625ZM26.7093 35.4493C26.1008 34.606 25.3625 33.8667 24.5202 33.2578C25.3625 32.6487 26.1008 31.9096 26.7093 31.0663C27.3177 31.9096 28.056 32.6487 28.8983 33.2578C28.056 33.8669 27.3177 34.6061 26.7093 35.4493Z" fill="#7B1111"/>
<path d="M67.0037 20.6272C66.4536 20.6272 66.0076 21.0732 66.0076 21.6233C66.0076 22.4958 65.2996 23.2056 64.4293 23.2056H59.9039C59.9117 23.1088 59.9169 23.0113 59.9169 22.9125C59.9169 21.2877 58.8278 19.9135 57.3424 19.4807V18.6091C58.5119 18.2683 59.4348 17.3442 59.7748 16.1734H64.4294C65.2998 16.1734 66.0078 16.8832 66.0078 17.7557C66.0078 18.3058 66.4538 18.7518 67.0039 18.7518C67.554 18.7518 68 18.3058 68 17.7557C68 15.7848 66.3982 14.1812 64.4294 14.1812H63.0706V10.0203C63.0706 8.04938 61.3389 6.4458 59.2104 6.4458C57.082 6.4458 55.3504 8.04938 55.3504 10.0203V11.7453C54.181 12.0859 53.2581 13.0102 52.9181 14.1811H49.1876C47.296 11.0906 43.8922 9.02422 40.0148 9.02422H27.7512C26.8102 9.02422 25.8904 9.41176 25.2274 10.0874C24.571 10.7564 24.2191 11.6325 24.2366 12.5545C24.246 13.0553 24.3638 13.5311 24.5673 13.9595H22.7682C20.8962 13.9595 19.3445 15.4835 19.309 17.3567C19.2915 18.2787 19.6434 19.1549 20.2998 19.8238C20.694 20.2255 21.179 20.5254 21.7051 20.7025C21.4441 21.1771 21.2908 21.7183 21.2799 22.292C21.2624 23.214 21.6144 24.0902 22.2707 24.7591C22.9337 25.4348 23.8536 25.8223 24.7945 25.8223H33.0055V27.1952C33.0055 29.1596 34.6019 30.7576 36.564 30.7576H40.0147C44.0579 30.7576 47.5855 28.51 49.4211 25.1978H53.5655C53.5777 25.1978 53.5896 25.1965 53.6017 25.196C54.0515 25.7369 54.6579 26.1427 55.3501 26.3444V27.2159C53.8646 27.6487 52.7757 29.023 52.7757 30.6478C52.7757 32.2726 53.8648 33.6469 55.3501 34.0796V43.7751C54.581 44.0959 53.9831 44.7797 53.7743 45.6366L51.8764 53.4297C51.6942 54.178 52.0492 54.9422 52.7397 55.2883C53.8666 55.8528 55.08 56.1388 56.3461 56.1388C57.6122 56.1388 58.8256 55.8526 59.9525 55.2882C60.643 54.9423 60.9981 54.178 60.8158 53.4297L58.906 45.5881C58.7015 44.7481 58.1009 44.0904 57.3422 43.7771V34.0798C58.8276 33.6469 59.9166 32.2727 59.9166 30.6479C59.9166 29.0231 58.8276 27.6489 57.3422 27.216V26.3445C58.0337 26.1431 58.6394 25.738 59.0891 25.198H64.429C66.3979 25.198 67.9996 23.5944 67.9996 21.6235C67.9998 21.0731 67.5538 20.6272 67.0037 20.6272ZM48.7741 19.9907C48.7739 24.8291 44.8445 28.7653 40.0148 28.7653H36.5641C35.7004 28.7653 34.9978 28.0609 34.9978 27.1951V25.8222H39.915C39.9313 25.8222 39.9474 25.8206 39.9636 25.8197C39.9807 25.8206 39.9978 25.8222 40.015 25.8222C40.2701 25.8222 40.5254 25.7247 40.7199 25.5299L43.1837 23.0622C43.5723 22.6729 43.5719 22.0422 43.1827 21.6535C42.7933 21.2647 42.1625 21.2653 41.7739 21.6545L39.6019 23.8299H34.0019H24.7948C24.3854 23.8299 23.9837 23.6599 23.6929 23.3636C23.4141 23.0795 23.2646 22.7122 23.2719 22.3293C23.2869 21.5339 23.9452 20.8867 24.7393 20.8867H36.0728C36.6229 20.8867 37.0689 20.4408 37.0689 19.8906C37.0689 19.3405 36.6229 18.8946 36.0728 18.8946H24.7393H24.6589H22.8237C22.4143 18.8946 22.0127 18.7246 21.7218 18.4283C21.443 18.1442 21.2935 17.7769 21.3008 17.394C21.3158 16.5986 21.9741 15.9514 22.7682 15.9514H27.5585H27.6957H36.0727C36.6228 15.9514 37.0688 15.5055 37.0688 14.9553C37.0688 14.4052 36.6228 13.9593 36.0727 13.9593H27.6957C26.9016 13.9593 26.2433 13.3121 26.2283 12.5165C26.221 12.1338 26.3705 11.7665 26.6493 11.4824C26.94 11.1861 27.3418 11.0161 27.7512 11.0161H40.0148C44.8447 11.0161 48.7741 14.9523 48.7741 19.7904V19.9907ZM57.3423 10.0203C57.3424 9.14787 58.1804 8.43798 59.2103 8.43798C60.2403 8.43798 61.0783 9.14787 61.0783 10.0203V14.1811H59.7746C59.4346 13.0102 58.5117 12.0859 57.3423 11.7453V10.0203ZM56.3464 13.5948C57.2167 13.5948 57.9247 14.3047 57.9247 15.1771C57.9247 16.0496 57.2167 16.7595 56.3464 16.7595C55.476 16.7595 54.768 16.0496 54.768 15.1771C54.768 14.3047 55.476 13.5948 56.3464 13.5948ZM52.7758 22.9127C52.7758 23.0115 52.7809 23.109 52.7888 23.2058H50.2764C50.5944 22.1902 50.7662 21.1104 50.7662 19.9912V19.7909C50.7662 18.5222 50.5443 17.3048 50.14 16.1735H52.9179C53.2579 17.3444 54.1809 18.2686 55.3503 18.6093V19.4808C53.8648 19.9136 52.7758 21.2877 52.7758 22.9127ZM58.8129 53.6242C58.3405 53.8351 57.8489 53.9818 57.3424 54.0651V51.0173C57.3424 50.4672 56.8965 50.0212 56.3464 50.0212C55.7962 50.0212 55.3503 50.4672 55.3503 51.0173V54.0651C54.8438 53.9818 54.352 53.8352 53.8798 53.6243L55.7102 46.1079C55.7806 45.8188 56.0139 45.5979 56.2777 45.571C56.6026 45.5368 56.8937 45.7431 56.9707 46.0594L58.8129 53.6242ZM57.9247 30.6478C57.9247 31.5202 57.2167 32.2301 56.3464 32.2301C55.476 32.2301 54.768 31.5202 54.768 30.6478C54.768 29.7753 55.476 29.0655 56.3464 29.0655C57.2167 29.0656 57.9247 29.7753 57.9247 30.6478ZM56.3464 24.495C55.476 24.495 54.768 23.7851 54.768 22.9127C54.768 22.0402 55.476 21.3303 56.3464 21.3303C57.2167 21.3303 57.9247 22.0402 57.9247 22.9127C57.9247 23.785 57.2167 24.495 56.3464 24.495Z" fill="#7B1111"/>
</svg>
