<svg width="68" height="68" viewBox="0 0 68 68" fill="none" xmlns="http://www.w3.org/2000/svg">
<g clip-path="url(#clip0)">
<path d="M66.4077 28.1908L62.4162 26.8422C61.3053 26.4669 60.411 25.6304 59.9622 24.5472C59.5134 23.464 59.5545 22.2399 60.0745 21.189L61.9435 17.4132C62.3964 16.4981 62.2225 15.4404 61.5006 14.7186C60.7786 13.9964 59.721 13.8227 58.8061 14.2758L55.0301 16.1446C53.979 16.6645 52.7551 16.7057 51.6719 16.2569C50.5887 15.8083 49.7522 14.9138 49.3769 13.8029L48.0283 9.81153C47.7016 8.84425 46.8307 8.21924 45.8098 8.21924C44.7889 8.21924 43.918 8.84425 43.5913 9.81153L42.2427 13.8029C41.8674 14.9138 41.031 15.8081 39.9477 16.2569C38.8645 16.7057 37.6405 16.6647 36.5896 16.1446L32.8137 14.2758C31.8985 13.8227 30.8409 13.9967 30.1191 14.7186C29.3971 15.4405 29.2234 16.4981 29.6762 17.4132L31.5451 21.189C32.0652 22.24 32.1061 23.464 31.6575 24.5472C31.6208 24.6355 31.5807 24.7219 31.5382 24.8067H30.6486C26.4161 24.8067 22.3306 26.5796 19.4396 29.6708L16.7754 32.5195H10.1676C9.61802 32.5195 9.17243 32.965 9.17243 33.5147C9.17243 34.0643 9.61802 34.5099 10.1676 34.5099H17.2071C17.4825 34.5099 17.7457 34.3957 17.9338 34.1944L20.893 31.0304C23.4091 28.3401 26.9649 26.7971 30.6485 26.7971H34.8244C36.2983 26.7971 37.4976 27.9963 37.4976 29.4703V41.8015C37.4976 42.462 36.9603 42.9992 36.2999 42.9992C34.1141 42.9992 32.3357 41.2209 32.3357 39.0351V33.6409C32.3357 33.0913 31.8901 32.6457 31.3406 32.6457C30.791 32.6457 30.3454 33.0913 30.3454 33.6409C30.3454 33.6787 30.2763 37.4372 24.3108 37.891C23.7628 37.9327 23.3524 38.4107 23.394 38.9588C23.4357 39.5068 23.9134 39.9176 24.4617 39.8756C26.2885 39.7367 28.6477 39.2308 30.3454 37.6984V39.0351C30.3454 40.8356 31.1498 42.4509 32.417 43.5436C30.9303 44.3319 29.9147 45.8952 29.9147 47.692C29.9147 49.5181 30.9636 51.1025 32.4899 51.8779C31.7009 52.7178 31.2161 53.8467 31.2161 55.0874C31.2161 56.0932 31.5353 57.0253 32.0759 57.79H29.9147C26.6172 57.79 23.4496 56.5773 20.9951 54.3754L17.8715 51.5731C17.6889 51.4092 17.4522 51.3186 17.2071 51.3186H1.9902V34.5097H5.54771C6.09729 34.5097 6.54287 34.0642 6.54287 33.5146C6.54287 32.965 6.09729 32.5194 5.54771 32.5194H0.995164C0.445586 32.5194 0 32.9649 0 33.5146V52.3137C0 52.8632 0.445586 53.3087 0.995164 53.3087H16.8261L19.6662 55.8566C22.4864 58.3866 26.1261 59.78 29.9148 59.78H44.4304C47.018 59.78 49.1232 57.6748 49.1232 55.0872C49.1232 54.0188 48.7637 53.0332 48.1602 52.2435C50.1979 51.7323 51.7116 49.8858 51.7116 47.6918C51.7116 46.6845 51.3915 45.7513 50.8494 44.9859C51.7236 44.9614 52.5384 44.6966 53.2307 44.2558C53.8482 44.2559 54.4643 44.3938 55.0303 44.6739L58.8063 46.5428C59.7213 46.9957 60.7791 46.8219 61.501 46.0999C62.2228 45.3779 62.3966 44.3203 61.9437 43.4054L61.1935 41.8895C60.9496 41.3969 60.3525 41.1951 59.8603 41.439C59.3677 41.6827 59.1661 42.2797 59.4098 42.7723L60.1601 44.2882C60.2526 44.4751 60.175 44.6112 60.0937 44.6926C60.0124 44.774 59.876 44.8517 59.6893 44.7591L55.9133 42.8902C55.5743 42.7225 55.2232 42.589 54.8647 42.4887C55.2123 41.8341 55.4095 41.0879 55.4095 40.2965C55.4095 38.2234 54.0579 36.4613 52.1899 35.842C52.8393 35.0367 53.2294 34.0138 53.2294 32.9011C53.2294 30.3135 51.1242 28.2083 48.5366 28.2083H39.3134C38.7617 26.2481 36.9591 24.8065 34.8249 24.8065H33.677C34.1432 23.3237 34.0247 21.7111 33.3292 20.306L31.4602 16.53C31.3678 16.3431 31.4454 16.2068 31.5266 16.1256C31.6082 16.0442 31.7446 15.9667 31.9312 16.0592L35.7072 17.9281C37.2728 18.7029 39.096 18.7639 40.7098 18.0954C42.3235 17.4271 43.5697 16.0946 44.1287 14.4398L45.4773 10.4484C45.5439 10.2509 45.6952 10.2093 45.8102 10.2093C45.9252 10.2093 46.0765 10.2507 46.1432 10.4484L47.4918 14.4398C48.0508 16.0946 49.2969 17.4271 50.9108 18.0954C52.5243 18.764 54.3478 18.7029 55.9133 17.9281L59.6894 16.0592C59.8761 15.9666 60.0124 16.0443 60.0938 16.1256C60.1752 16.2068 60.2528 16.3431 60.1602 16.53L58.2913 20.306C57.5164 21.8714 57.4555 23.6948 58.1239 25.3086C58.7924 26.9223 60.1248 28.1685 61.7796 28.7275L65.771 30.0759C65.9686 30.1426 66.0101 30.2939 66.0101 30.409C66.0101 30.524 65.9686 30.6753 65.7711 30.742L61.7796 32.0904C59.2392 32.9488 57.585 35.3264 57.6636 38.0068C57.6795 38.556 58.1376 38.9891 58.6875 38.9724C59.2368 38.9563 59.6691 38.498 59.653 37.9485C59.6003 36.1488 60.711 34.5522 62.4167 33.976L66.4081 32.6275C67.3754 32.3008 68.0004 31.4299 68.0004 30.409C68 29.3885 67.3751 28.5176 66.4077 28.1908ZM44.4304 57.79H35.909C34.4189 57.79 33.2064 56.5776 33.2064 55.0874C33.2064 53.5973 34.4188 52.3848 35.909 52.3848H44.4304C45.9206 52.3848 47.133 53.5973 47.133 55.0874C47.133 56.5776 45.9206 57.79 44.4304 57.79ZM53.4188 40.2968C53.4188 41.7869 52.2065 42.9994 50.7162 42.9994H39.4882V37.5943H50.7162C52.2065 37.5942 53.4188 38.8066 53.4188 40.2968ZM39.4878 30.1989H48.5362C50.0264 30.1989 51.2388 31.4112 51.2388 32.9014C51.2388 34.3915 50.0265 35.604 48.5362 35.604H39.4878V30.1989ZM47.0189 44.9896C48.509 44.9897 49.7211 46.202 49.7211 47.6922C49.7211 49.1823 48.5088 50.3948 47.0185 50.3948H44.4303H35.9089H34.6075C33.1173 50.3948 31.9049 49.1825 31.9049 47.6922C31.9049 46.202 33.1172 44.9896 34.6075 44.9896H47.0189Z" fill="#7B1111"/>
</g>
<defs>
<clipPath id="clip0">
<rect width="68" height="68" fill="white"/>
</clipPath>
</defs>
</svg>
