<svg width="68" height="68" viewBox="0 0 68 68" fill="none" xmlns="http://www.w3.org/2000/svg">
<g clip-path="url(#clip0)">
<path d="M67.9913 56.5296L62.7155 13.442C61.7691 5.77189 55.257 0.00848487 47.5289 0.000976562H20.4707C12.7425 0.00848487 6.2304 5.77189 5.28407 13.442L0.00828258 56.5296C-0.0662338 57.1375 0.355648 57.6945 0.960987 57.7876L10.7229 59.2892L9.09375 66.6216C8.95804 67.2326 9.34322 67.8379 9.95437 67.9738C10.035 67.9916 10.1173 68.0007 10.1999 68.0007H57.7997C58.4255 68.0007 58.933 67.4934 58.933 66.8674C58.933 66.7846 58.9239 66.7022 58.9061 66.6216L57.2769 59.2892L67.0388 57.7876C67.644 57.6943 68.0658 57.1373 67.9913 56.5296ZM38.7286 23.8009H36.5027L40.6042 2.26763H42.8301L38.7286 23.8009ZM29.271 23.8009L25.1694 2.26763H27.3953L31.4968 23.8009H29.271ZM33.8043 23.8009L29.7028 2.26763H38.2968L34.1953 23.8009H33.8043ZM29.4665 26.0675H38.5331V28.3342H29.4665V26.0675ZM7.53387 13.7174C8.33995 7.18359 13.8873 2.27387 20.4707 2.26763H22.862L27.1998 25.0413V29.4675C27.1998 30.0934 27.7073 30.6009 28.3331 30.6009H39.6664C40.2923 30.6009 40.7997 30.0934 40.7997 29.4675V25.0413L45.1376 2.26763H47.5289C54.1122 2.27387 59.6596 7.18359 60.4657 13.7174L64.7906 49.0405L55.3228 50.4971L54.3997 46.3431V41.9908L56.6607 19.3809L54.4053 19.1542L52.2407 40.8008H41.9331C41.9331 40.2468 41.5326 39.774 40.986 39.6829L34.1861 38.5496C34.0627 38.5289 33.9369 38.5289 33.8135 38.5496L27.0135 39.6829C26.467 39.774 26.0665 40.2468 26.0665 40.8008H15.7589L13.5942 19.1542L11.3389 19.3809L13.5999 41.9908V46.3432L12.6768 50.4973L3.20894 49.0405L7.53387 13.7174ZM52.133 45.3341H41.9331V43.0675H52.133V45.3341ZM44.5658 47.6008L48.1924 56.6674H46.1005L42.4738 47.6008H44.5658ZM15.8665 43.0675H26.0665V45.3341H15.8665V43.0675ZM32.8664 43.0675H28.3331V41.7609L32.8664 41.0054V43.0675ZM25.5259 47.6008L21.8992 56.6674H19.8071L23.4338 47.6008H25.5259ZM28.3331 45.3341H32.8664V47.3962L28.3331 46.6407V45.3341ZM35.1331 41.0054L39.6664 41.7609V46.6407L35.1331 47.3962V41.0054ZM2.39181 55.7143L2.9334 51.2913L12.1842 52.7145L11.2161 57.0717L2.39181 55.7143ZM11.6127 65.734L15.6423 47.6008H20.9926L17.0809 57.3798C16.8484 57.961 17.1312 58.6206 17.7123 58.853C17.8462 58.9066 17.989 58.9341 18.1332 58.9341H22.6665C23.1299 58.9341 23.5467 58.6519 23.7188 58.2216L27.4882 48.7979L33.8135 49.852C33.9369 49.8725 34.0627 49.8725 34.1861 49.852L40.5113 48.7979L44.2808 58.2216C44.4529 58.6519 44.8697 58.9341 45.3331 58.9341H49.8664C50.4923 58.9341 50.9997 58.4266 50.9997 57.8007C50.9997 57.6565 50.9722 57.5137 50.9187 57.3798L47.007 47.6008H52.3573L56.3868 65.734H11.6127ZM56.7838 57.0717L55.8163 52.7149L65.0671 51.2917L65.6087 55.7147L56.7838 57.0717Z" fill="#7B1111"/>
</g>
<defs>
<clipPath id="clip0">
<rect width="68" height="68" fill="white"/>
</clipPath>
</defs>
</svg>
