<svg width="22" height="22" viewBox="0 0 22 22" fill="none" xmlns="http://www.w3.org/2000/svg">
<path d="M20.0662 2.62109H1.93338C1.63573 2.62109 1.35708 2.69427 1.10498 2.81488L10.9568 12.6667L13.1649 10.5446C13.1649 10.5446 13.1651 10.5444 13.1651 10.5443C13.1652 10.5442 13.1654 10.5441 13.1654 10.5441L20.8949 2.81505C20.6427 2.69436 20.3639 2.62109 20.0662 2.62109Z" fill="white" fill-opacity="0.5"/>
<path d="M21.8066 3.72656L14.5327 11.0001L21.8063 18.2737C21.9269 18.0216 22.0001 17.7429 22.0001 17.4453V4.55466C22.0001 4.25718 21.9271 3.97857 21.8066 3.72656Z" fill="white" fill-opacity="0.5"/>
<path d="M0.193789 3.72632C0.0731758 3.97842 0 4.25707 0 4.55471V17.4453C0 17.7428 0.0730898 18.0215 0.193617 18.2735L7.4675 11L0.193789 3.72632Z" fill="white" fill-opacity="0.5"/>
<path d="M13.6213 11.9115L11.4128 14.0338C11.2869 14.1597 11.122 14.2227 10.9572 14.2227C10.7923 14.2227 10.6273 14.1597 10.5015 14.0338L8.37899 11.9114L1.10498 19.1849C1.35712 19.3056 1.63595 19.3789 1.93368 19.3789H20.0665C20.3641 19.3789 20.6428 19.3057 20.8949 19.1851L13.6213 11.9115Z" fill="white" fill-opacity="0.5"/>
</svg>
