<svg width="50" height="285" viewBox="0 0 50 285" fill="none" xmlns="http://www.w3.org/2000/svg">
<g id="&#231;&#165;&#158; &#232;&#183;&#175; &#229;&#177;&#177; &#233;&#129;&#147; &#229;&#160;&#180;">
    <path d="M33.48 25.24H30.48V28.24H33.48V25.24ZM33.48 21.68V18.68H30.48V21.68H33.48ZM37.36 21.68H40.36V18.68H37.36V21.68ZM37.36 25.24V28.24H40.36V25.24H37.36ZM25.08 25.24H22.08V28.24H25.08V25.24ZM25.08 21.68V18.68H22.08V21.68H25.08ZM28.92 21.68H31.92V18.68H28.92V21.68ZM28.92 25.24V28.24H31.92V25.24H28.92ZM28.92 14.2H31.92V11.2H28.92V14.2ZM28.92 17.64V20.64H31.92V17.64H28.92ZM25.08 17.64H22.08V20.64H25.08V17.64ZM25.08 14.2V11.2H22.08V14.2H25.08ZM37.36 14.2H40.36V11.2H37.36V14.2ZM37.36 17.64V20.64H40.36V17.64H37.36ZM33.48 17.64H30.48V20.64H33.48V17.64ZM33.48 14.2V11.2H30.48V14.2H33.48ZM33.48 9.96H30.48V12.96H33.48V9.96ZM33.48 3.2H36.48V0.199999H33.48V3.2ZM28.92 3.2V0.199999H25.92V3.2H28.92ZM28.92 9.92V12.92H31.92V9.92H28.92ZM20.8 9.92V6.92H17.8V9.92H20.8ZM20.8 23.84L18.8069 26.0822L23.8 30.5205V23.84H20.8ZM16.52 20.2L13.9939 18.5817L12.5066 20.9033L14.6947 22.5808L16.52 20.2ZM20.6 12L23.434 12.984L24.2067 10.7587L22.2281 9.48025L20.6 12ZM18 10.32L19.6281 7.80025L18.5518 7.10476L17.3051 7.40158L18 10.32ZM17.16 10.52V13.52H17.5122L17.8549 13.4384L17.16 10.52ZM15.52 10.52H12.52V13.52H15.52V10.52ZM15.52 3.16H18.52V0.159999H15.52V3.16ZM10.84 3.16V0.159999H7.84V3.16H10.84ZM10.84 10.52V13.52H13.84V10.52H10.84ZM6.08 10.52V7.52H3.08V10.52H6.08ZM6.08 14.8H3.08V17.8H6.08V14.8ZM14.76 14.8L17.4243 16.1789L19.6906 11.8H14.76V14.8ZM4.6 26L3.02627 23.4459L0.106205 25.2451L2.27813 27.8997L4.6 26ZM6.8 30.52L3.93656 31.4148L5.13976 35.2651L8.48093 33.0049L6.8 30.52ZM10.84 27.2H13.84V20.1121L8.75156 25.0463L10.84 27.2ZM10.84 40.48H7.84V43.48H10.84V40.48ZM15.52 40.48V43.48H18.52V40.48H15.52ZM15.52 24.48L17.743 22.4654L12.52 16.7022V24.48H15.52ZM18.56 28.16L16.1119 29.8941L18.512 33.2824L20.9752 29.9396L18.56 28.16ZM20.8 25.12H23.8V15.9912L18.3848 23.3404L20.8 25.12ZM20.8 31.04H17.8V34.04H20.8V31.04ZM25.08 31.04V34.04H28.08V31.04H25.08ZM25.08 29.48V26.48H22.08V29.48H25.08ZM28.92 29.48H31.92V26.48H28.92V29.48ZM28.92 40.44H25.92V43.44H28.92V40.44ZM33.48 40.44V43.44H36.48V40.44H33.48ZM33.48 29.48V26.48H30.48V29.48H33.48ZM37.36 29.48H40.36V26.48H37.36V29.48ZM37.36 30.88H34.36V33.88H37.36V30.88ZM41.84 30.88V33.88H44.84V30.88H41.84ZM41.84 9.96H44.84V6.96H41.84V9.96ZM36.48 25.24V21.68H30.48V25.24H36.48ZM33.48 24.68H37.36V18.68H33.48V24.68ZM34.36 21.68V25.24H40.36V21.68H34.36ZM37.36 22.24H33.48V28.24H37.36V22.24ZM28.08 25.24V21.68H22.08V25.24H28.08ZM25.08 24.68H28.92V18.68H25.08V24.68ZM25.92 21.68V25.24H31.92V21.68H25.92ZM28.92 22.24H25.08V28.24H28.92V22.24ZM25.92 14.2V17.64H31.92V14.2H25.92ZM28.92 14.64H25.08V20.64H28.92V14.64ZM28.08 17.64V14.2H22.08V17.64H28.08ZM25.08 17.2H28.92V11.2H25.08V17.2ZM34.36 14.2V17.64H40.36V14.2H34.36ZM37.36 14.64H33.48V20.64H37.36V14.64ZM36.48 17.64V14.2H30.48V17.64H36.48ZM33.48 17.2H37.36V11.2H33.48V17.2ZM36.48 9.96V3.2H30.48V9.96H36.48ZM33.48 0.199999H28.92V6.2H33.48V0.199999ZM25.92 3.2V9.92H31.92V3.2H25.92ZM28.92 6.92H20.8V12.92H28.92V6.92ZM17.8 9.92V23.84H23.8V9.92H17.8ZM22.7931 21.5978C21.7344 20.6567 19.6487 18.8184 18.3453 17.8192L14.6947 22.5808C15.7913 23.4216 17.7056 25.1033 18.8069 26.0822L22.7931 21.5978ZM19.0461 21.8183C20.7797 19.1122 22.3386 16.1389 23.434 12.984L17.766 11.016C16.8614 13.6211 15.5403 16.1678 13.9939 18.5817L19.0461 21.8183ZM22.2281 9.48025L19.6281 7.80025L16.3719 12.8397L18.9719 14.5197L22.2281 9.48025ZM17.3051 7.40158L16.4651 7.60158L17.8549 13.4384L18.6949 13.2384L17.3051 7.40158ZM17.16 7.52H15.52V13.52H17.16V7.52ZM18.52 10.52V3.16H12.52V10.52H18.52ZM15.52 0.159999H10.84V6.16H15.52V0.159999ZM7.84 3.16V10.52H13.84V3.16H7.84ZM10.84 7.52H6.08V13.52H10.84V7.52ZM3.08 10.52V14.8H9.08V10.52H3.08ZM6.08 17.8H14.76V11.8H6.08V17.8ZM12.0957 13.4211C9.96591 17.5362 6.48725 21.3134 3.02627 23.4459L6.17373 28.5541C10.6327 25.8066 14.8341 21.1838 17.4243 16.1789L12.0957 13.4211ZM2.27813 27.8997C2.27784 27.8994 2.28017 27.9022 2.28512 27.9087C2.29004 27.9151 2.29694 27.9243 2.30583 27.9367C2.32387 27.9617 2.34745 27.9958 2.3764 28.0399C2.43509 28.1293 2.50589 28.2449 2.58707 28.3869C2.75029 28.6723 2.93084 29.021 3.112 29.401C3.48399 30.1813 3.7924 30.9535 3.93656 31.4148L9.66344 29.6252C9.4076 28.8065 8.97601 27.7587 8.528 26.819C8.1086 25.9393 7.52926 24.8426 6.92187 24.1003L2.27813 27.8997ZM8.48093 33.0049C10.0047 31.9741 11.4997 30.7392 12.9284 29.3537L8.75156 25.0463C7.54032 26.2208 6.3153 27.2259 5.11907 28.0351L8.48093 33.0049ZM7.84 27.2V40.48H13.84V27.2H7.84ZM10.84 43.48H15.52V37.48H10.84V43.48ZM18.52 40.48V24.48H12.52V40.48H18.52ZM13.297 26.4946C14.4231 27.7372 15.5323 29.0758 16.1119 29.8941L21.0081 26.4259C20.2277 25.3242 18.9369 23.7828 17.743 22.4654L13.297 26.4946ZM20.9752 29.9396L23.2152 26.8996L18.3848 23.3404L16.1448 26.3804L20.9752 29.9396ZM17.8 25.12V31.04H23.8V25.12H17.8ZM20.8 34.04H25.08V28.04H20.8V34.04ZM28.08 31.04V29.48H22.08V31.04H28.08ZM25.08 32.48H28.92V26.48H25.08V32.48ZM25.92 29.48V40.44H31.92V29.48H25.92ZM28.92 43.44H33.48V37.44H28.92V43.44ZM36.48 40.44V29.48H30.48V40.44H36.48ZM33.48 32.48H37.36V26.48H33.48V32.48ZM34.36 29.48V30.88H40.36V29.48H34.36ZM37.36 33.88H41.84V27.88H37.36V33.88ZM44.84 30.88V9.96H38.84V30.88H44.84ZM41.84 6.96H33.48V12.96H41.84V6.96ZM27.12 85.64L25.551 83.083L16.4951 88.64H27.12V85.64ZM32.04 82L34.0404 79.7643L32.0108 77.9483L30.0076 79.7934L32.04 82ZM37.04 85.64V88.64H48.0776L38.5586 83.0528L37.04 85.64ZM28.2 94.96H25.2V97.96H28.2V94.96ZM28.2 89.64V86.64H25.2V89.64H28.2ZM35.72 89.64H38.72V86.64H35.72V89.64ZM35.72 94.96V97.96H38.72V94.96H35.72ZM21.4 82.52H24.4V79.52H21.4V82.52ZM17 82.52H14V85.52H17V82.52ZM17 77.84V74.84H14V77.84H17ZM21 77.84V80.84H24V77.84H21ZM21 75.28L22.6641 72.7838L18 69.6744V75.28H21ZM24.2 78L22.019 80.0599L24.1909 82.3596L26.3724 80.069L24.2 78ZM26.56 75.24L29.1089 73.6579L26.8096 69.9535L24.1715 73.4247L26.56 75.24ZM29.04 78.76L31.0814 80.9584L33.1578 79.0303L31.3512 76.8473L29.04 78.76ZM21.4 83.76H18.4V88.3356L22.5962 86.5112L21.4 83.76ZM11.36 68.68V65.68H8.36V68.68H11.36ZM16.64 68.68H19.64V65.68H16.64V68.68ZM16.64 73.76V76.76H19.64V73.76H16.64ZM11.36 73.76H8.36V76.76H11.36V73.76ZM34.76 70.96L37.4686 72.2498L39.5114 67.96H34.76V70.96ZM31.84 75.68L29.5242 77.5871L31.8978 80.4694L34.2012 77.5306L31.84 75.68ZM28.92 71.56L26.2729 70.1482L25.4817 71.6318L26.3342 73.0811L28.92 71.56ZM29.24 70.96V67.96H27.44L26.5929 69.5482L29.24 70.96ZM37.6 66.76L38.7773 64.0007L37.9366 63.642L37.0387 63.813L37.6 66.76ZM36.76 66.92V69.92H37.0432L37.3213 69.867L36.76 66.92ZM31.16 66.92L28.3834 65.7841L26.6914 69.92H31.16V66.92ZM32.16 64.24L34.9794 65.2652L36.1193 62.1303L32.8815 61.3281L32.16 64.24ZM27.64 63.12L28.3615 60.2081L25.5947 59.5225L24.7687 62.2507L27.64 63.12ZM21 74.52H18V81.5531L23.0764 76.6853L21 74.52ZM21 64.6H24V61.6H21V64.6ZM7.2 64.6V61.6H4.2V64.6H7.2ZM7.2 77.84H4.2V80.84H7.2V77.84ZM12.8 77.84H15.8V74.84H12.8V77.84ZM12.8 92.88L13.3883 95.8217L15.8 95.3394V92.88H12.8ZM10.8 93.28H7.8V96.9394L11.3883 96.2217L10.8 93.28ZM10.8 80.64H13.8V77.64H10.8V80.64ZM6.92 80.64V77.64H3.92V80.64H6.92ZM6.92 94.08L7.4451 97.0337L9.92 96.5937V94.08H6.92ZM5.12 94.4L4.5949 91.4463L1.62276 91.9747L2.16964 94.9435L5.12 94.4ZM5.96 98.96L3.00964 99.5035L3.57757 102.587L6.63269 101.884L5.96 98.96ZM22.16 95.12L22.8876 98.0304L25.4151 97.3985L25.1437 94.8074L22.16 95.12ZM21.72 90.92L24.7037 90.6074L24.3509 87.2405L21.0509 87.9956L21.72 90.92ZM17 92H14V95.764L17.6691 94.9244L17 92ZM17 86.68V83.68H14V86.68H17ZM21.4 86.68V89.68H24.4V86.68H21.4ZM21.4 85.52L23.8152 83.7404L18.4 76.3912V85.52H21.4ZM22.88 87.8L20.1967 89.1416L21.4684 91.685L24.0762 90.5512L22.88 87.8ZM23.8 87.4H26.8V82.8244L22.6038 84.6488L23.8 87.4ZM23.8 100.4H20.8V103.4H23.8V100.4ZM28.2 100.4V103.4H31.2V100.4H28.2ZM28.2 99.04V96.04H25.2V99.04H28.2ZM35.72 99.04H38.72V96.04H35.72V99.04ZM35.72 100.28H32.72V103.28H35.72V100.28ZM40.28 100.28V103.28H43.28V100.28H40.28ZM40.28 87.2L41.6216 84.5167L37.28 82.3459V87.2H40.28ZM40.36 87.24L39.0184 89.9233L41.6675 91.2478L43.0259 88.6159L40.36 87.24ZM43.32 83.24L45.3472 85.4515L49.188 81.9307L44.2148 80.3766L43.32 83.24ZM35.04 78.8L32.7251 76.8918L30.7805 79.2508L33.1758 81.1505L35.04 78.8ZM40.6 68.04L43.4772 68.8895L44.2333 66.3286L41.7773 65.2807L40.6 68.04ZM28.689 88.197C30.5565 87.051 32.3671 85.7773 34.0724 84.2066L30.0076 79.7934C28.6729 81.0227 27.2035 82.069 25.551 83.083L28.689 88.197ZM30.0396 84.2357C31.7095 85.7299 33.5111 87.0473 35.5214 88.2272L38.5586 83.0528C36.8889 82.0727 35.4105 80.9901 34.0404 79.7643L30.0396 84.2357ZM37.04 82.64H27.12V88.64H37.04V82.64ZM31.2 94.96V89.64H25.2V94.96H31.2ZM28.2 92.64H35.72V86.64H28.2V92.64ZM32.72 89.64V94.96H38.72V89.64H32.72ZM35.72 91.96H28.2V97.96H35.72V91.96ZM21.4 79.52H17V85.52H21.4V79.52ZM20 82.52V77.84H14V82.52H20ZM17 80.84H21V74.84H17V80.84ZM24 77.84V75.28H18V77.84H24ZM19.3359 77.7761C20.1942 78.3484 21.464 79.4722 22.019 80.0599L26.381 75.9401C25.576 75.0878 23.9658 73.6516 22.6641 72.7838L19.3359 77.7761ZM26.3724 80.069C27.2374 79.1607 28.1117 78.1563 28.9485 77.0552L24.1715 73.4247C23.4883 74.3237 22.7626 75.1593 22.0276 75.931L26.3724 80.069ZM24.0111 76.8221C24.7647 78.0362 25.6459 79.3641 26.7288 80.6727L31.3512 76.8473C30.5141 75.8359 29.7953 74.7638 29.1089 73.6579L24.0111 76.8221ZM26.9986 76.5616C25.008 78.4101 22.6539 79.9435 20.2038 81.0088L22.5962 86.5112C25.6661 85.1765 28.5921 83.2699 31.0814 80.9584L26.9986 76.5616ZM24.4 83.76V82.52H18.4V83.76H24.4ZM11.36 71.68H16.64V65.68H11.36V71.68ZM13.64 68.68V73.76H19.64V68.68H13.64ZM16.64 70.76H11.36V76.76H16.64V70.76ZM14.36 73.76V68.68H8.36V73.76H14.36ZM32.0514 69.6702C31.3442 71.1553 30.4999 72.5266 29.4788 73.8294L34.2012 77.5306C35.5001 75.8734 36.5758 74.1247 37.4686 72.2498L32.0514 69.6702ZM34.1558 73.7729C33.1166 72.511 32.2121 71.2397 31.5058 70.0389L26.3342 73.0811C27.2279 74.6003 28.3234 76.129 29.5242 77.5871L34.1558 73.7729ZM31.5671 72.9718L31.8871 72.3718L26.5929 69.5482L26.2729 70.1482L31.5671 72.9718ZM29.24 73.96H34.76V67.96H29.24V73.96ZM37.0387 63.813L36.1987 63.973L37.3213 69.867L38.1613 69.707L37.0387 63.813ZM36.76 63.92H31.16V69.92H36.76V63.92ZM33.9366 68.0559C34.3263 67.1034 34.6794 66.0903 34.9794 65.2652L29.3406 63.2148C29.0007 64.1497 28.7137 64.9766 28.3834 65.7841L33.9366 68.0559ZM32.8815 61.3281L28.3615 60.2081L26.9185 66.0319L31.4385 67.1519L32.8815 61.3281ZM24.7687 62.2507C23.5652 66.226 21.3978 69.9822 18.9236 72.3547L23.0764 76.6853C26.4422 73.4578 29.0748 68.734 30.5113 63.9893L24.7687 62.2507ZM24 74.52V64.6H18V74.52H24ZM21 61.6H7.2V67.6H21V61.6ZM4.2 64.6V77.84H10.2V64.6H4.2ZM7.2 80.84H12.8V74.84H7.2V80.84ZM9.8 77.84V92.88H15.8V77.84H9.8ZM12.2117 89.9383L10.2117 90.3383L11.3883 96.2217L13.3883 95.8217L12.2117 89.9383ZM13.8 93.28V80.64H7.8V93.28H13.8ZM10.8 77.64H6.92V83.64H10.8V77.64ZM3.92 80.64V94.08H9.92V80.64H3.92ZM6.3949 91.1263L4.5949 91.4463L5.6451 97.3537L7.4451 97.0337L6.3949 91.1263ZM2.16964 94.9435L3.00964 99.5035L8.91036 98.4165L8.07036 93.8565L2.16964 94.9435ZM6.63269 101.884C11.1489 100.844 17.2559 99.4384 22.8876 98.0304L21.4324 92.2096C15.8641 93.6016 9.81113 94.9955 5.28731 96.0364L6.63269 101.884ZM25.1437 94.8074L24.7037 90.6074L18.7363 91.2326L19.1763 95.4326L25.1437 94.8074ZM21.0509 87.9956L16.3309 89.0756L17.6691 94.9244L22.3891 93.8444L21.0509 87.9956ZM20 92V86.68H14V92H20ZM17 89.68H21.4V83.68H17V89.68ZM24.4 86.68V85.52H18.4V86.68H24.4ZM18.9848 87.2996C19.5361 88.0478 20.001 88.7503 20.1967 89.1416L25.5633 86.4584C25.119 85.5697 24.3839 84.5122 23.8152 83.7404L18.9848 87.2996ZM24.0762 90.5512L24.9962 90.1512L22.6038 84.6488L21.6838 85.0488L24.0762 90.5512ZM20.8 87.4V100.4H26.8V87.4H20.8ZM23.8 103.4H28.2V97.4H23.8V103.4ZM31.2 100.4V99.04H25.2V100.4H31.2ZM28.2 102.04H35.72V96.04H28.2V102.04ZM32.72 99.04V100.28H38.72V99.04H32.72ZM35.72 103.28H40.28V97.28H35.72V103.28ZM43.28 100.28V87.2H37.28V100.28H43.28ZM38.9384 89.8833L39.0184 89.9233L41.7016 84.5567L41.6216 84.5167L38.9384 89.8833ZM43.0259 88.6159C43.5412 87.6175 44.7015 86.0433 45.3472 85.4515L41.2928 81.0285C40.0185 82.1967 38.4588 84.3825 37.6941 85.8641L43.0259 88.6159ZM44.2148 80.3766C41.4187 79.5028 38.9813 78.0969 36.9042 76.4495L33.1758 81.1505C35.7387 83.1831 38.8213 84.9772 42.4252 86.1034L44.2148 80.3766ZM37.3549 80.7082C40.0775 77.4054 42.135 73.4356 43.4772 68.8895L37.7228 67.1905C36.585 71.0444 34.8825 74.2746 32.7251 76.8918L37.3549 80.7082ZM41.7773 65.2807L38.7773 64.0007L36.4227 69.5193L39.4227 70.7993L41.7773 65.2807ZM35.4 132.72V129.72H32.4V132.72H35.4ZM35.4 152.44V155.44H38.4V152.44H35.4ZM26.32 152.44H23.32V155.44H26.32V152.44ZM26.32 124.2H29.32V121.2H26.32V124.2ZM21.36 124.2V121.2H18.36V124.2H21.36ZM21.36 152.44V155.44H24.36V152.44H21.36ZM12.68 152.44H9.68V155.44H12.68V152.44ZM12.68 132.8H15.68V129.8H12.68V132.8ZM7.8 132.8V129.8H4.8V132.8H7.8ZM7.8 160H4.8V163H7.8V160ZM12.68 160V163H15.68V160H12.68ZM12.68 157.36V154.36H9.68V157.36H12.68ZM35.4 157.36H38.4V154.36H35.4V157.36ZM35.4 159.88H32.4V162.88H35.4V159.88ZM40.36 159.88V162.88H43.36V159.88H40.36ZM40.36 132.72H43.36V129.72H40.36V132.72ZM32.4 132.72V152.44H38.4V132.72H32.4ZM35.4 149.44H26.32V155.44H35.4V149.44ZM29.32 152.44V124.2H23.32V152.44H29.32ZM26.32 121.2H21.36V127.2H26.32V121.2ZM18.36 124.2V152.44H24.36V124.2H18.36ZM21.36 149.44H12.68V155.44H21.36V149.44ZM15.68 152.44V132.8H9.68V152.44H15.68ZM12.68 129.8H7.8V135.8H12.68V129.8ZM4.8 132.8V160H10.8V132.8H4.8ZM7.8 163H12.68V157H7.8V163ZM15.68 160V157.36H9.68V160H15.68ZM12.68 160.36H35.4V154.36H12.68V160.36ZM32.4 157.36V159.88H38.4V157.36H32.4ZM35.4 162.88H40.36V156.88H35.4V162.88ZM43.36 159.88V132.72H37.36V159.88H43.36ZM40.36 129.72H35.4V135.72H40.36V129.72ZM34.6 198.96V201.96H37.6V198.96H34.6ZM23.76 198.96H20.76V201.96H23.76V198.96ZM23.76 196.88V193.88H20.76V196.88H23.76ZM34.6 196.88H37.6V193.88H34.6V196.88ZM34.6 204.2V207.2H37.6V204.2H34.6ZM23.76 204.2H20.76V207.2H23.76V204.2ZM23.76 202.12V199.12H20.76V202.12H23.76ZM34.6 202.12H37.6V199.12H34.6V202.12ZM34.6 209.48V212.48H37.6V209.48H34.6ZM23.76 209.48H20.76V212.48H23.76V209.48ZM23.76 207.36V204.36H20.76V207.36H23.76ZM34.6 207.36H37.6V204.36H34.6V207.36ZM19.24 193.44V190.44H16.24V193.44H19.24ZM19.24 212.92H16.24V215.92H19.24V212.92ZM39.32 212.92V215.92H42.32V212.92H39.32ZM39.32 193.44H42.32V190.44H39.32V193.44ZM30.32 193.44L27.6055 192.163L25.5927 196.44H30.32V193.44ZM31.32 191.28V188.28H29.3281L28.5551 190.116L31.32 191.28ZM42 191.28V194.28H45V191.28H42ZM42 187.44H45V184.44H42V187.44ZM35.88 187.44L33.3839 185.776L30.2745 190.44H35.88V187.44ZM37.96 184.12L40.5325 185.663L42.6964 182.057L38.5818 181.185L37.96 184.12ZM33.24 183.12L33.8618 180.185L31.364 179.656L30.4423 182.037L33.24 183.12ZM31.12 187.44V190.44H32.8277L33.6996 188.972L31.12 187.44ZM26.12 187.44L24.9662 184.671L26.12 190.44V187.44ZM26.6 187.24L27.7538 190.009L30.3546 188.926L29.4361 186.262L26.6 187.24ZM24 183.16L26.2299 181.153L24.8651 179.637L22.9532 180.349L24 183.16ZM20.24 184.56L19.1932 181.749L15.2829 183.205L17.9083 186.448L20.24 184.56ZM22.08 187.44V190.44H26.9341L24.7633 186.098L22.08 187.44ZM16.52 187.44V184.44H13.52V187.44H16.52ZM16.52 191.28H13.52V194.28H16.52V191.28ZM26.2 191.28L29.1592 191.773L29.7414 188.28H26.2V191.28ZM25.8 193.44V196.44H28.2065L28.7286 194.091L25.8 193.44ZM16.12 190.08L18.0501 192.377L20.1857 190.582L18.5507 188.322L16.12 190.08ZM9.44 184.04L11.1604 181.582L9.2989 180.279L7.54029 181.718L9.44 184.04ZM5.92 186.92L4.02029 184.598L1.04862 187.029L4.12653 189.325L5.92 186.92ZM12.36 193.24L9.83988 194.868L11.6856 197.726L14.2901 195.537L12.36 193.24ZM15.12 198.64H18.12V195.64H15.12V198.64ZM5.88 198.64V195.64H2.88V198.64H5.88ZM5.88 203H2.88V206H5.88V203ZM10.48 203H13.48V200H10.48V203ZM10.48 211.44L12.3143 213.814L13.48 212.913V211.44H10.48ZM5 215.12L3.49214 212.526L1.12003 213.906L2.28257 216.391L5 215.12ZM7.32 220.08L4.60257 221.351L6.1806 224.725L9.14074 222.464L7.32 220.08ZM13.04 215.28L15.3447 213.359L13.3646 210.983L11.0501 213.035L13.04 215.28ZM23.84 219.72L23.9659 216.723L23.9619 216.722L23.84 219.72ZM41.44 219.6L41.5898 222.596L43.9787 222.477L44.3944 220.121L41.44 219.6ZM42.92 214.8L45.641 216.063L47.7945 211.425L42.6951 211.808L42.92 214.8ZM23.92 215.12L24.0481 212.123L24.0353 212.122L23.92 215.12ZM15.12 211.2H12.12V212.045L12.5611 212.766L15.12 211.2ZM34.6 195.96H23.76V201.96H34.6V195.96ZM26.76 198.96V196.88H20.76V198.96H26.76ZM23.76 199.88H34.6V193.88H23.76V199.88ZM31.6 196.88V198.96H37.6V196.88H31.6ZM34.6 201.2H23.76V207.2H34.6V201.2ZM26.76 204.2V202.12H20.76V204.2H26.76ZM23.76 205.12H34.6V199.12H23.76V205.12ZM31.6 202.12V204.2H37.6V202.12H31.6ZM34.6 206.48H23.76V212.48H34.6V206.48ZM26.76 209.48V207.36H20.76V209.48H26.76ZM23.76 210.36H34.6V204.36H23.76V210.36ZM31.6 207.36V209.48H37.6V207.36H31.6ZM16.24 193.44V212.92H22.24V193.44H16.24ZM19.24 215.92H39.32V209.92H19.24V215.92ZM42.32 212.92V193.44H36.32V212.92H42.32ZM39.32 190.44H30.32V196.44H39.32V190.44ZM33.0345 194.717C33.3146 194.122 33.7329 193.28 34.0849 192.444L28.5551 190.116C28.2671 190.8 27.9654 191.398 27.6055 192.163L33.0345 194.717ZM31.32 194.28H42V188.28H31.32V194.28ZM45 191.28V187.44H39V191.28H45ZM42 184.44H35.88V190.44H42V184.44ZM38.3762 189.104C39.0535 188.088 39.8009 186.883 40.5325 185.663L35.3875 182.577C34.6791 183.757 33.9865 184.872 33.3839 185.776L38.3762 189.104ZM38.5818 181.185L33.8618 180.185L32.6182 186.055L37.3382 187.055L38.5818 181.185ZM30.4423 182.037C30.027 183.11 29.2221 184.76 28.5404 185.908L33.6996 188.972C34.5379 187.56 35.493 185.61 36.0377 184.203L30.4423 182.037ZM31.12 184.44H26.12V190.44H31.12V184.44ZM27.2738 190.209L27.7538 190.009L25.4462 184.471L24.9662 184.671L27.2738 190.209ZM29.4361 186.262C28.8594 184.589 27.4659 182.526 26.2299 181.153L21.7701 185.167C22.6941 186.194 23.5406 187.571 23.7639 188.218L29.4361 186.262ZM22.9532 180.349L19.1932 181.749L21.2868 187.371L25.0468 185.971L22.9532 180.349ZM17.9083 186.448C18.4385 187.103 19.0039 187.996 19.3967 188.782L24.7633 186.098C24.1961 184.964 23.4015 183.697 22.5717 182.672L17.9083 186.448ZM22.08 184.44H16.52V190.44H22.08V184.44ZM13.52 187.44V191.28H19.52V187.44H13.52ZM16.52 194.28H26.2V188.28H16.52V194.28ZM23.2408 190.787C23.1187 191.519 23.0112 192.16 22.8714 192.789L28.7286 194.091C28.9088 193.28 29.0413 192.481 29.1592 191.773L23.2408 190.787ZM25.8 190.44H19.24V196.44H25.8V190.44ZM18.5507 188.322C16.8905 186.027 13.6361 183.315 11.1604 181.582L7.71961 186.498C10.0439 188.125 12.6295 190.373 13.6893 191.838L18.5507 188.322ZM7.54029 181.718L4.02029 184.598L7.81971 189.242L11.3397 186.362L7.54029 181.718ZM4.12653 189.325C6.39043 191.013 8.89068 193.398 9.83988 194.868L14.8801 191.612C13.3493 189.242 10.1696 186.347 7.71347 184.515L4.12653 189.325ZM14.2901 195.537L18.0501 192.377L14.1899 187.783L10.4299 190.943L14.2901 195.537ZM15.12 195.64H5.88V201.64H15.12V195.64ZM2.88 198.64V203H8.88V198.64H2.88ZM5.88 206H10.48V200H5.88V206ZM7.48 203V211.44H13.48V203H7.48ZM8.64566 209.066C6.99893 210.339 5.10934 211.586 3.49214 212.526L6.50786 217.714C8.33066 216.654 10.4411 215.261 12.3143 213.814L8.64566 209.066ZM2.28257 216.391L4.60257 221.351L10.0374 218.809L7.71743 213.849L2.28257 216.391ZM9.14074 222.464C11.4385 220.71 13.2734 219.082 15.0299 217.525L11.0501 213.035C9.28656 214.598 7.60153 216.09 5.49926 217.696L9.14074 222.464ZM10.7353 217.201C14.0869 221.222 18.3436 222.499 23.7182 222.718L23.9619 216.722C19.4964 216.541 17.1931 215.578 15.3447 213.359L10.7353 217.201ZM23.7141 222.717C28.5806 222.922 36.7139 222.84 41.5898 222.596L41.2902 216.604C36.5661 216.84 28.6194 216.918 23.9659 216.723L23.7141 222.717ZM44.3944 220.121C44.5927 218.998 45.239 216.929 45.641 216.063L40.199 213.537C39.561 214.911 38.7673 217.482 38.4857 219.079L44.3944 220.121ZM42.6951 211.808C37.4943 212.199 28.6122 212.318 24.0481 212.123L23.7919 218.117C28.5878 218.322 37.7057 218.201 43.1449 217.792L42.6951 211.808ZM24.0353 212.122C20.223 211.976 18.5268 211.02 17.6789 209.634L12.5611 212.766C14.9932 216.74 19.297 217.944 23.8047 218.118L24.0353 212.122ZM18.12 211.2V198.64H12.12V211.2H18.12ZM35.56 249.32V252.32H38.56V249.32H35.56ZM25.24 249.32H22.24V252.32H25.24V249.32ZM25.24 247.4V244.4H22.24V247.4H25.24ZM35.56 247.4H38.56V244.4H35.56V247.4ZM35.56 254.36V257.36H38.56V254.36H35.56ZM25.24 254.36H22.24V257.36H25.24V254.36ZM25.24 252.44V249.44H22.24V252.44H25.24ZM35.56 252.44H38.56V249.44H35.56V252.44ZM39.96 244.12H42.96V241.12H39.96V244.12ZM21.04 244.12V241.12H18.04V244.12H21.04ZM21.04 257.64H18.04V260.64H21.04V257.64ZM39.96 257.64V260.64H42.96V257.64H39.96ZM42.68 263.16V266.16H45.68V263.16H42.68ZM42.68 259.16H45.68V256.16H42.68V259.16ZM17.52 259.16V256.16H14.52V259.16H17.52ZM17.52 263.16H14.52V266.16H17.52V263.16ZM22.04 263.16L24.5656 264.779L27.5265 260.16H22.04V263.16ZM18.36 267.4L15.4476 268.12L16.6184 272.859L20.3176 269.673L18.36 267.4ZM17.52 264L20.4324 263.28L19.5787 259.825L16.3175 261.252L17.52 264ZM14.32 265.4H11.32V269.987L15.5225 268.148L14.32 265.4ZM14.32 255.96V252.96H11.32V255.96H14.32ZM18.08 255.96V258.96H21.08V255.96H18.08ZM18.08 251.48H21.08V248.48H18.08V251.48ZM14.32 251.48H11.32V254.48H14.32V251.48ZM14.32 243.6H17.32V240.6H14.32V243.6ZM9.92 243.6V240.6H6.92V243.6H9.92ZM9.92 251.48V254.48H12.92V251.48H9.92ZM5.92 251.48V248.48H2.92V251.48H5.92ZM5.92 255.96H2.92V258.96H5.92V255.96ZM9.92 255.96H12.92V252.96H9.92V255.96ZM9.92 267.24L11.0444 270.021L12.92 269.263V267.24H9.92ZM5 269.2L3.92859 266.398L1.16472 267.455L2.18337 270.233L5 269.2ZM6.76 274L3.94337 275.033L5.09142 278.164L8.08396 276.692L6.76 274ZM14.96 269.92L16.5772 267.393L15.1422 266.475L13.6184 267.237L14.96 269.92ZM18.08 272.72L15.7254 274.579L17.4018 276.702L19.6866 275.254L18.08 272.72ZM22.76 268.8V265.8H21.4709L20.5836 266.735L22.76 268.8ZM25.12 268.8L27.559 270.547L30.9587 265.8H25.12V268.8ZM16.96 276.04L15.6184 273.357L10.7605 275.786L15.4031 278.604L16.96 276.04ZM20.08 278.84L17.7671 280.751L19.4498 282.788L21.6831 281.376L20.08 278.84ZM29.44 268.8V265.8H27.6855L26.8253 267.329L29.44 268.8ZM31.8 268.8L34.523 270.059L36.4923 265.8H31.8V268.8ZM24.36 278L22.758 275.464L18.3954 278.219L22.9482 280.647L24.36 278ZM27.72 280.64L25.4562 282.609L27.3199 284.752L29.5618 283.008L27.72 280.64ZM35.72 268.8V265.8H33.6235L32.9028 267.769L35.72 268.8ZM37.28 268.8L40.2677 269.072L40.5651 265.8H37.28V268.8ZM35.8 276.28L33.6068 274.233L33.582 274.26L33.5578 274.287L35.8 276.28ZM31.76 276.6L32.04 273.613L26.1372 273.06L29.1875 278.143L31.76 276.6ZM32.84 280.32L29.8476 280.534L30.0369 283.184L32.6902 283.316L32.84 280.32ZM36.88 280.24L36.5226 277.261L36.5073 277.263L36.492 277.265L36.88 280.24ZM39.52 278.88L37.3243 276.836L37.2637 276.901L37.2071 276.969L39.52 278.88ZM41.8 266.72L44.7923 266.935L44.7924 266.934L41.8 266.72ZM41.88 265.08L44.8779 265.191L44.9932 262.08H41.88V265.08ZM25.64 265.08L23.096 263.49L20.2273 268.08H25.64V265.08ZM26.76 263.16V260.16H24.9059L24.0767 261.818L26.76 263.16ZM35.56 246.32H25.24V252.32H35.56V246.32ZM28.24 249.32V247.4H22.24V249.32H28.24ZM25.24 250.4H35.56V244.4H25.24V250.4ZM32.56 247.4V249.32H38.56V247.4H32.56ZM35.56 251.36H25.24V257.36H35.56V251.36ZM28.24 254.36V252.44H22.24V254.36H28.24ZM25.24 255.44H35.56V249.44H25.24V255.44ZM32.56 252.44V254.36H38.56V252.44H32.56ZM39.96 241.12H21.04V247.12H39.96V241.12ZM18.04 244.12V257.64H24.04V244.12H18.04ZM21.04 260.64H39.96V254.64H21.04V260.64ZM42.96 257.64V244.12H36.96V257.64H42.96ZM45.68 263.16V259.16H39.68V263.16H45.68ZM42.68 256.16H17.52V262.16H42.68V256.16ZM14.52 259.16V263.16H20.52V259.16H14.52ZM17.52 266.16H22.04V260.16H17.52V266.16ZM19.5144 261.541C18.6686 262.86 17.6189 264.079 16.4024 265.127L20.3176 269.673C21.9811 268.241 23.4114 266.58 24.5656 264.779L19.5144 261.541ZM21.2724 266.68L20.4324 263.28L14.6076 264.72L15.4476 268.12L21.2724 266.68ZM16.3175 261.252L13.1175 262.652L15.5225 268.148L18.7225 266.748L16.3175 261.252ZM17.32 265.4V255.96H11.32V265.4H17.32ZM14.32 258.96H18.08V252.96H14.32V258.96ZM21.08 255.96V251.48H15.08V255.96H21.08ZM18.08 248.48H14.32V254.48H18.08V248.48ZM17.32 251.48V243.6H11.32V251.48H17.32ZM14.32 240.6H9.92V246.6H14.32V240.6ZM6.92 243.6V251.48H12.92V243.6H6.92ZM9.92 248.48H5.92V254.48H9.92V248.48ZM2.92 251.48V255.96H8.92V251.48H2.92ZM5.92 258.96H9.92V252.96H5.92V258.96ZM6.92 255.96V267.24H12.92V255.96H6.92ZM8.79563 264.459C6.90501 265.223 5.2558 265.89 3.92859 266.398L6.07141 272.002C7.4642 271.47 9.17499 270.777 11.0444 270.021L8.79563 264.459ZM2.18337 270.233L3.94337 275.033L9.57663 272.967L7.81663 268.167L2.18337 270.233ZM8.08396 276.692C10.5346 275.487 13.4242 274.042 16.3016 272.603L13.6184 267.237C10.7358 268.678 7.86537 270.113 5.43604 271.308L8.08396 276.692ZM13.3428 272.447C14.0624 272.907 15.3329 274.082 15.7254 274.579L20.4346 270.861C19.6271 269.838 17.8576 268.213 16.5772 267.393L13.3428 272.447ZM19.6866 275.254C21.568 274.06 23.3156 272.573 24.9364 270.865L20.5836 266.735C19.2444 268.147 17.872 269.3 16.4734 270.186L19.6866 275.254ZM22.76 271.8H25.12V265.8H22.76V271.8ZM22.681 267.053C20.7885 269.696 18.0623 272.135 15.6184 273.357L18.3016 278.723C21.7777 276.985 25.2115 273.824 27.559 270.547L22.681 267.053ZM15.4031 278.604C16.1434 279.054 17.1383 279.989 17.7671 280.751L22.3929 276.929C21.5017 275.851 20.0166 274.386 18.5169 273.476L15.4031 278.604ZM21.6831 281.376C25.6165 278.889 29.671 274.509 32.0547 270.271L26.8253 267.329C24.889 270.771 21.5035 274.391 18.4769 276.304L21.6831 281.376ZM29.44 271.8H31.8V265.8H29.44V271.8ZM29.077 267.541C27.5053 270.94 25.1484 273.954 22.758 275.464L25.962 280.536C29.6516 278.206 32.6547 274.1 34.523 270.059L29.077 267.541ZM22.9482 280.647C23.8435 281.125 24.9097 281.98 25.4562 282.609L29.9838 278.671C28.9303 277.46 27.2765 276.155 25.7718 275.353L22.9482 280.647ZM29.5618 283.008C33.3746 280.043 36.7688 274.662 38.5372 269.831L32.9028 267.769C31.3912 271.898 28.5454 276.197 25.8782 278.272L29.5618 283.008ZM35.72 271.8H37.28V265.8H35.72V271.8ZM34.2923 268.528C34.0757 270.911 33.8576 272.5 33.6466 273.525C33.5411 274.038 33.4514 274.338 33.3938 274.493C33.3215 274.688 33.355 274.503 33.6068 274.233L37.9932 278.327C38.525 277.757 38.8285 277.092 39.0175 276.584C39.2211 276.037 39.3839 275.412 39.5234 274.735C39.8024 273.38 40.0443 271.529 40.2677 269.072L34.2923 268.528ZM33.5578 274.287C33.6068 274.232 33.7014 274.136 33.8458 274.036C33.9956 273.932 34.1579 273.852 34.3189 273.797C34.6043 273.699 34.7824 273.72 34.6 273.72V279.72C34.9776 279.72 35.5957 279.701 36.2611 279.473C37.0152 279.215 37.595 278.776 38.0422 278.273L33.5578 274.287ZM34.6 273.72C34.0994 273.72 33.1745 273.719 32.04 273.613L31.48 279.587C32.9055 279.721 34.0606 279.72 34.6 279.72V273.72ZM29.1875 278.143C29.4773 278.626 29.7904 279.732 29.8476 280.534L35.8324 280.106C35.7296 278.668 35.2427 276.574 34.3325 275.057L29.1875 278.143ZM32.6902 283.316C34.3889 283.401 36.1043 283.367 37.268 283.215L36.492 277.265C35.8157 277.353 34.4911 277.399 32.9898 277.324L32.6902 283.316ZM37.2374 283.219C38.7529 283.037 40.4429 282.473 41.8329 280.791L37.2071 276.969C37.0956 277.104 37.0301 277.137 36.9978 277.153C36.9444 277.178 36.8177 277.226 36.5226 277.261L37.2374 283.219ZM41.7157 280.924C42.8898 279.663 43.4312 277.802 43.8022 275.85C44.2014 273.75 44.5108 270.856 44.7923 266.935L38.8077 266.505C38.5292 270.384 38.2386 272.99 37.9078 274.73C37.5488 276.618 37.2302 276.937 37.3243 276.836L41.7157 280.924ZM44.7924 266.934C44.8156 266.609 44.8371 266.162 44.8521 265.822C44.8598 265.647 44.8663 265.49 44.8708 265.377C44.873 265.32 44.8748 265.274 44.876 265.242C44.8766 265.226 44.8771 265.214 44.8774 265.205C44.8776 265.201 44.8777 265.197 44.8778 265.195C44.8778 265.194 44.8779 265.193 44.8779 265.192C44.8779 265.192 44.8779 265.192 44.8779 265.191C44.8779 265.191 44.8779 265.191 44.8779 265.191C44.8779 265.191 44.8779 265.191 44.8779 265.191C44.8779 265.191 44.8779 265.191 41.88 265.08C38.8821 264.969 38.8821 264.969 38.8821 264.969C38.8821 264.969 38.8821 264.969 38.8821 264.969C38.8821 264.969 38.8821 264.969 38.8821 264.969C38.8821 264.969 38.8821 264.969 38.882 264.969C38.882 264.97 38.882 264.97 38.882 264.971C38.8819 264.973 38.8818 264.976 38.8817 264.979C38.8814 264.987 38.881 264.998 38.8804 265.013C38.8793 265.042 38.8776 265.085 38.8755 265.138C38.8712 265.245 38.8652 265.393 38.8579 265.558C38.8429 265.898 38.8244 266.271 38.8076 266.506L44.7924 266.934ZM41.88 262.08H25.64V268.08H41.88V262.08ZM28.184 266.67C28.5683 266.055 29.0481 265.292 29.4433 264.502L24.0767 261.818C23.8319 262.308 23.5117 262.825 23.096 263.49L28.184 266.67ZM26.76 266.16H42.68V260.16H26.76V266.16Z" fill="#444444" fill-opacity="0.4"/>
<path d="M33.48 25.24V21.68H37.36V25.24H33.48ZM25.08 25.24V21.68H28.92V25.24H25.08ZM28.92 14.2V17.64H25.08V14.2H28.92ZM37.36 14.2V17.64H33.48V14.2H37.36ZM33.48 9.96V3.2H28.92V9.92H20.8V23.84C19.72 22.88 17.72 21.12 16.52 20.2C18.16 17.64 19.6 14.88 20.6 12L18 10.32L17.16 10.52H15.52V3.16H10.84V10.52H6.08V14.8H14.76C12.4 19.36 8.56 23.56 4.6 26C5.32 26.88 6.4 29.24 6.8 30.52C8.16 29.6 9.52 28.48 10.84 27.2V40.48H15.52V24.48C16.68 25.76 17.88 27.2 18.56 28.16L20.8 25.12V31.04H25.08V29.48H28.92V40.44H33.48V29.48H37.36V30.88H41.84V9.96H33.48ZM27.12 85.64C28.88 84.56 30.52 83.4 32.04 82C33.56 83.36 35.2 84.56 37.04 85.64H27.12ZM28.2 94.96V89.64H35.72V94.96H28.2ZM21.4 82.52H17V77.84H21V75.28C22.08 76 23.52 77.28 24.2 78C25 77.16 25.8 76.24 26.56 75.24C27.28 76.4 28.08 77.6 29.04 78.76C26.8 80.84 24.16 82.56 21.4 83.76V82.52ZM11.36 68.68H16.64V73.76H11.36V68.68ZM34.76 70.96C33.96 72.64 33 74.2 31.84 75.68C30.72 74.32 29.72 72.92 28.92 71.56L29.24 70.96H34.76ZM37.6 66.76L36.76 66.92H31.16C31.52 66.04 31.84 65.12 32.16 64.24L27.64 63.12C26.32 67.48 23.92 71.72 21 74.52V64.6H7.2V77.84H12.8V92.88L10.8 93.28V80.64H6.92V94.08L5.12 94.4L5.96 98.96C10.48 97.92 16.56 96.52 22.16 95.12L21.72 90.92L17 92V86.68H21.4V85.52C21.96 86.28 22.56 87.16 22.88 87.8L23.8 87.4V100.4H28.2V99.04H35.72V100.28H40.28V87.2L40.36 87.24C41 86 42.36 84.12 43.32 83.24C40.12 82.24 37.36 80.64 35.04 78.8C37.48 75.84 39.36 72.24 40.6 68.04L37.6 66.76ZM35.4 132.72V152.44H26.32V124.2H21.36V152.44H12.68V132.8H7.8V160H12.68V157.36H35.4V159.88H40.36V132.72H35.4ZM34.6 198.96H23.76V196.88H34.6V198.96ZM34.6 204.2H23.76V202.12H34.6V204.2ZM34.6 209.48H23.76V207.36H34.6V209.48ZM19.24 193.44V212.92H39.32V193.44H30.32C30.64 192.76 31 192.04 31.32 191.28H42V187.44H35.88C36.52 186.48 37.24 185.32 37.96 184.12L33.24 183.12C32.76 184.36 31.88 186.16 31.12 187.44H26.12L26.6 187.24C26.2 186.08 25.08 184.36 24 183.16L20.24 184.56C20.92 185.4 21.6 186.48 22.08 187.44H16.52V191.28H26.2C26.08 192 25.96 192.72 25.8 193.44H19.24ZM16.12 190.08C14.76 188.2 11.84 185.72 9.44 184.04L5.92 186.92C8.28 188.68 11.12 191.32 12.36 193.24L16.12 190.08ZM15.12 198.64H5.88V203H10.48V211.44C8.72 212.8 6.72 214.12 5 215.12L7.32 220.08C9.52 218.4 11.28 216.84 13.04 215.28C15.64 218.4 18.92 219.52 23.84 219.72C28.6 219.92 36.64 219.84 41.44 219.6C41.68 218.24 42.4 215.92 42.92 214.8C37.6 215.2 28.6 215.32 23.92 215.12C19.76 214.96 16.76 213.88 15.12 211.2V198.64ZM35.56 249.32H25.24V247.4H35.56V249.32ZM35.56 254.36H25.24V252.44H35.56V254.36ZM39.96 244.12H21.04V257.64H39.96V244.12ZM42.68 263.16V259.16H17.52V263.16H22.04C21.04 264.72 19.8 266.16 18.36 267.4L17.52 264L14.32 265.4V255.96H18.08V251.48H14.32V243.6H9.92V251.48H5.92V255.96H9.92V267.24C8.04 268 6.36 268.68 5 269.2L6.76 274C9.2 272.8 12.08 271.36 14.96 269.92C15.96 270.56 17.48 271.96 18.08 272.72C19.72 271.68 21.28 270.36 22.76 268.8H25.12C23 271.76 19.92 274.56 16.96 276.04C18.08 276.72 19.32 277.92 20.08 278.84C23.56 276.64 27.28 272.64 29.44 268.8H31.8C30.08 272.52 27.4 276.08 24.36 278C25.56 278.64 26.92 279.72 27.72 280.64C30.96 278.12 34.08 273.28 35.72 268.8H37.28C36.84 273.64 36.36 275.68 35.8 276.28C35.48 276.64 35.16 276.72 34.6 276.72C34.08 276.72 33.04 276.72 31.76 276.6C32.36 277.6 32.76 279.2 32.84 280.32C34.44 280.4 35.96 280.36 36.88 280.24C37.88 280.12 38.76 279.8 39.52 278.88C40.6 277.72 41.24 274.52 41.8 266.72C41.84 266.16 41.88 265.08 41.88 265.08H25.64C26.04 264.44 26.44 263.8 26.76 263.16H42.68Z" fill="#070404"/>
</g>
</svg>
