<svg width="53" height="53" viewBox="0 0 53 53" fill="none" xmlns="http://www.w3.org/2000/svg">
<g clip-path="url(#clip0)">
<path d="M49.4166 39.253C48.0361 37.467 44.5069 33.387 42.239 30.6545C41.2346 29.4446 39.3316 29.6063 38.5457 30.9681L38.3741 31.2654L34.1814 28.8445C33.3442 28.3604 32.8283 27.4673 32.8283 26.5001C32.8283 26.017 32.9572 25.5514 33.1911 25.1469C33.425 24.7425 33.7627 24.3972 34.1813 24.1556L38.374 21.7346C38.4308 21.8341 38.4877 21.9325 38.5435 22.0286C39.3304 23.3916 41.2343 23.5533 42.2389 22.3423C44.5068 19.6087 48.036 15.5307 49.4154 13.7459C49.6602 13.4301 49.399 12.9775 49.0033 13.0311C46.767 13.3328 41.4715 14.3493 37.9707 14.9471C36.4187 15.2116 35.6066 16.9419 36.3946 18.3059L36.564 18.5988L32.3702 21.0198C31.533 21.5029 30.5012 21.5029 29.664 21.0198C29.2454 20.7783 28.9066 20.434 28.6738 20.0295C28.4398 19.6241 28.3109 19.1595 28.3109 18.6753V13.8345H28.6497C30.2226 13.8345 31.3156 12.2661 30.769 10.7905C29.5361 7.46024 27.7677 2.36469 26.913 0.277085C26.761 -0.0923618 26.2386 -0.0923618 26.0867 0.277085C25.2298 2.36469 23.4625 7.4591 22.2295 10.7894C21.683 12.2661 22.776 13.8344 24.3509 13.8344H24.6887V18.6152C24.6887 19.5322 24.2548 20.4098 23.494 20.9214C23.0361 21.2285 22.5093 21.3827 21.9824 21.3827C21.5157 21.3827 21.0479 21.2614 20.6292 21.0199L19.8718 20.5827L16.4355 18.5989C16.4935 18.5006 16.5492 18.4022 16.606 18.305C17.3929 16.942 16.5809 15.2129 15.0299 14.9484C11.5279 14.3504 6.2324 13.334 3.99615 13.0312C3.60051 12.9777 3.33924 13.4302 3.58302 13.7472C4.9635 15.5331 8.49276 19.6132 10.7607 22.3457C11.7651 23.5556 13.668 23.3939 14.4539 22.032L14.6255 21.7347L18.8182 24.1557C19.6555 24.6398 20.1714 25.5328 20.1714 26.5001C20.1714 26.9832 20.0424 27.4488 19.8086 27.8532C19.5746 28.2577 19.237 28.603 18.8183 28.8446L14.6257 31.2655C14.5688 31.166 14.512 31.0677 14.4562 30.9715C13.6693 29.6086 11.7653 29.4469 10.7608 30.6579C8.49287 33.3914 4.96361 37.4694 3.58426 39.2542C3.33945 39.5701 3.60062 40.0226 3.99636 39.969C6.2326 39.6674 11.5282 38.6508 15.0289 38.053C16.581 37.7886 17.393 36.0583 16.6051 34.6943L16.4356 34.4013L20.6295 31.9804C21.4667 31.4973 22.4984 31.4973 23.3357 31.9804C23.7543 32.2219 24.0931 32.5662 24.3259 32.9706C24.5598 33.3761 24.6887 33.8407 24.6887 34.3248V39.1656H24.3499C22.7771 39.1656 21.6841 40.7341 22.2306 42.2096C23.4635 45.5399 25.232 50.6355 26.0867 52.7231C26.2387 53.0925 26.7611 53.0925 26.913 52.7231C27.7699 50.6355 29.5372 45.5411 30.7702 42.2107C31.3166 40.7341 30.2237 39.1657 28.6487 39.1657H28.3109V34.3849C28.3109 33.4678 28.7449 32.5902 29.5056 32.0786C29.9636 31.7715 30.4904 31.6174 31.0172 31.6174C31.484 31.6174 31.9518 31.7387 32.3704 31.9802L36.5642 34.4011C36.5063 34.4995 36.4506 34.5979 36.3937 34.6951C35.6068 36.0581 36.4189 37.7871 37.9699 38.0517C41.4718 38.6496 46.7674 39.666 49.0036 39.9688C49.3992 40.0225 49.6604 39.57 49.4166 39.253ZM26.5 29.1779C25.0212 29.1779 23.8222 27.9789 23.8222 26.5001C23.8222 25.0213 25.0212 23.8222 26.5 23.8222C27.9789 23.8222 29.1779 25.0213 29.1779 26.5001C29.1779 27.9789 27.9789 29.1779 26.5 29.1779Z" fill="#7B1111"/>
<path d="M49.4166 39.253C48.0361 37.467 44.5069 33.387 42.239 30.6545C41.2346 29.4446 39.3316 29.6063 38.5457 30.9681L38.3741 31.2654L34.1814 28.8445C33.3442 28.3604 32.8283 27.4673 32.8283 26.5001C32.8283 26.017 32.9572 25.5514 33.1911 25.1469C33.425 24.7425 33.7627 24.3972 34.1813 24.1556L38.374 21.7346C38.4308 21.8341 38.4877 21.9325 38.5435 22.0286C39.3304 23.3916 41.2343 23.5533 42.2389 22.3423C44.5068 19.6087 48.036 15.5307 49.4154 13.7459C49.6602 13.4301 49.399 12.9775 49.0033 13.0311C46.7671 13.3328 41.4715 14.3493 37.9707 14.9471C36.4187 15.2116 35.6066 16.9419 36.3946 18.3059L36.564 18.5988L32.3702 21.0198C31.533 21.5029 30.5012 21.5029 29.664 21.0198C29.2454 20.7783 28.9066 20.434 28.6738 20.0295C28.4398 19.6241 28.3109 19.1595 28.3109 18.6753V13.8345H28.6497C30.2226 13.8345 31.3156 12.2661 30.769 10.7905C29.5361 7.46024 27.7677 2.36469 26.913 0.277085C26.761 -0.0923618 26.2386 -0.0923618 26.0867 0.277085C25.2298 2.36469 23.4625 7.4591 22.2295 10.7894C21.683 12.2661 22.776 13.8344 24.3509 13.8344H24.6887V18.6152C24.6887 19.5322 24.2548 20.4098 23.494 20.9214C23.0361 21.2285 22.5093 21.3827 21.9824 21.3827C21.5157 21.3827 21.0479 21.2614 20.6293 21.0199L19.8718 20.5827C21.096 26.3372 24.1127 31.4285 28.3107 35.2429V34.3849C28.3107 33.4678 28.7447 32.5902 29.5054 32.0786C29.9634 31.7715 30.4901 31.6174 31.017 31.6174C31.4838 31.6174 31.9516 31.7387 32.3702 31.9802L36.564 34.4011C36.5061 34.4995 36.4504 34.5979 36.3935 34.6951C35.6066 36.0581 36.4187 37.7871 37.9697 38.0517C41.4716 38.6496 46.7672 39.666 49.0034 39.9688C49.3992 40.0225 49.6604 39.57 49.4166 39.253ZM26.5 29.1779C25.0212 29.1779 23.8222 27.9789 23.8222 26.5001C23.8222 25.0213 25.0212 23.8222 26.5 23.8222C27.9789 23.8222 29.1779 25.0213 29.1779 26.5001C29.1779 27.9789 27.9789 29.1779 26.5 29.1779Z" fill="#7B1111"/>
</g>
<defs>
<clipPath id="clip0">
<rect width="53" height="53" fill="white"/>
</clipPath>
</defs>
</svg>
