<svg width="53" height="53" viewBox="0 0 53 53" fill="none" xmlns="http://www.w3.org/2000/svg">
<path d="M0.46235 51.4525L0.632219 51.701C0.698883 51.7988 0.77093 51.8914 0.847325 51.9774C1.73011 52.9699 3.24299 53.1795 4.36882 52.415L17.9742 43.1688C19.0376 42.4463 19.4182 41.0828 18.9548 39.9344C18.886 39.7613 18.7967 39.5925 18.687 39.4322L18.5182 39.1838C17.6859 37.9601 16.0042 37.6386 14.7805 38.4709L1.17526 47.716C-0.0483958 48.5472 -0.368777 50.2289 0.46235 51.4525Z" fill="#7B1111"/>
<path d="M0.46235 51.4524L0.632219 51.7009C0.698883 51.7987 0.77093 51.8912 0.847325 51.9772C1.3796 51.9848 1.9183 51.8353 2.38929 51.5148L18.142 40.8105C18.4871 40.5761 18.7603 40.274 18.9549 39.9341C18.8861 39.7611 18.7968 39.5922 18.6871 39.432L18.5183 39.1835C17.686 37.9599 16.0043 37.6384 14.7806 38.4706L1.17526 47.7158C-0.0483958 48.5471 -0.368777 50.2288 0.46235 51.4524Z" fill="#7B1111"/>
<path d="M15.4128 38.5285L16.6601 40.3264L18.1181 42.4274C18.9901 41.7608 19.8407 41.0994 20.6697 40.4468C50.2707 17.1214 52.7916 3.14192 52.9848 0.303732C52.9963 0.135312 52.7816 0.055812 52.6806 0.191003C52.2344 0.788185 51.3273 1.98824 50.0354 3.63072C50.0343 3.63072 50.0343 3.63176 50.0343 3.6329C44.4666 10.7092 31.7591 25.9899 18 36.6007C17.1408 37.2629 16.2784 37.907 15.4128 38.5285Z" fill="#7B1111"/>
<path d="M15.4128 38.5288L16.6601 40.3267C17.5041 39.6804 18.3278 39.0395 19.131 38.4073C40.0064 21.9578 47.4128 10.1567 50.0343 3.63306C44.4666 10.7094 31.7591 25.9901 18 36.6008C17.1408 37.2632 16.2784 37.9073 15.4128 38.5288Z" fill="#7B1111"/>
<path d="M13.5581 35.8697L19.7226 44.7515C20.228 45.4794 21.2377 45.6622 21.9667 45.1558C22.6947 44.6505 22.8775 43.6408 22.3721 42.9117L21.8678 42.1858L16.2087 34.031C15.8958 33.5805 15.3914 33.3396 14.8797 33.3396C14.599 33.3396 14.3162 33.4116 14.0624 33.5622C14.0291 33.5815 13.9957 33.603 13.9634 33.6256C13.2355 34.1311 13.0527 35.1418 13.5581 35.8697Z" fill="#7B1111"/>
<path d="M14.0624 33.5619L19.7226 41.7168C20.2054 42.4135 21.1484 42.6114 21.8678 42.1856L16.2087 34.0307C15.8957 33.5802 15.3914 33.3394 14.8796 33.3394C14.5989 33.3394 14.3161 33.4114 14.0624 33.5619Z" fill="#7B1111"/>
<path d="M11.7365 40.5393C11.7429 40.5511 11.7504 40.563 11.759 40.5748L15.0074 45.1845L16.3408 44.2791C16.3387 44.2748 16.3365 44.2716 16.3333 44.2673L13.0784 39.6458C13.0752 39.6414 13.072 39.6372 13.0688 39.6328L11.7365 40.5393Z" fill="#7B1111"/>
<path d="M8.92795 42.4467C8.94627 42.4822 8.96666 42.5166 8.99026 42.5499L12.1429 47.0263C12.1601 47.05 12.1773 47.0725 12.1967 47.094L13.5203 46.195C13.5031 46.1617 13.4838 46.1284 13.4612 46.0972L10.3085 41.6209C10.2902 41.5951 10.272 41.5714 10.2505 41.5488L8.92795 42.4467Z" fill="#7B1111"/>
<path d="M5.9957 44.4403C6.00004 44.4467 6.00429 44.4533 6.00864 44.4597L9.26348 49.0812C9.26452 49.0823 9.26565 49.0844 9.26669 49.0856L10.6001 48.1802C10.5947 48.1706 10.5893 48.1619 10.5829 48.1533L7.32908 43.5339L5.9957 44.4403Z" fill="#7B1111"/>
<path d="M3.09137 46.4135C3.09572 46.4199 3.09996 46.4264 3.10431 46.4328L6.35915 51.0544C6.36019 51.0566 6.36132 51.0576 6.36236 51.0598L7.69678 50.1533C7.6914 50.1436 7.68498 50.135 7.67846 50.1253L4.42465 45.5071L3.09137 46.4135Z" fill="#7B1111"/>
<path d="M0.358063 48.5976L3.33652 52.8244C3.33869 52.8277 3.34087 52.8309 3.34407 52.8342C3.7011 52.7697 4.05057 52.631 4.36878 52.4148L4.77197 52.1406C4.74826 52.0556 4.70965 51.9729 4.65582 51.8965L1.58917 47.5428C1.57199 47.518 1.55367 47.4944 1.53328 47.4729L1.17522 47.716C0.82792 47.9513 0.553707 48.2556 0.358063 48.5976Z" fill="#7B1111"/>
<path d="M16.3332 44.2678C16.3364 44.2721 16.3386 44.2754 16.3408 44.2796L15.0074 45.1849L13.9375 43.6677L15.2719 42.7612L16.3332 44.2678Z" fill="#7B1111"/>
<path d="M13.4612 46.0981C13.4838 46.1293 13.5031 46.1626 13.5203 46.196L12.1966 47.0949C12.1773 47.0734 12.1601 47.0508 12.1429 47.0272L11.1236 45.5798L12.458 44.6733L13.4612 46.0981Z" fill="#7B1111"/>
<path d="M10.5827 48.1539C10.5891 48.1625 10.5945 48.171 10.5999 48.1808L9.26652 49.0861C9.26549 49.0851 9.26435 49.0829 9.26331 49.0818L8.19772 47.5679L9.53214 46.6614L10.5827 48.1539Z" fill="#7B1111"/>
<path d="M7.67841 50.1259C7.68483 50.1355 7.69135 50.1442 7.69674 50.1538L6.36232 51.0603C6.36128 51.0581 6.36014 51.0571 6.35911 51.0549L5.29352 49.542L6.62794 48.6345L7.67841 50.1259Z" fill="#7B1111"/>
<path d="M3.74079 50.5969L4.65587 51.8969C4.70959 51.9733 4.74831 52.056 4.77201 52.141L4.36882 52.4152C4.05051 52.6313 3.70104 52.77 3.34412 52.8345C3.34091 52.8313 3.33874 52.8281 3.33656 52.8249L2.40533 51.5044L3.74079 50.5969Z" fill="#7B1111"/>
<path d="M52.5376 51.4525L52.3677 51.701C52.3011 51.7988 52.229 51.8914 52.1527 51.9774C51.27 52.9699 49.7571 53.1795 48.6312 52.415L35.0259 43.1688C33.9625 42.4463 33.5818 41.0828 34.0453 39.9344C34.1141 39.7613 34.2033 39.5925 34.313 39.4322L34.4818 39.1838C35.3141 37.9601 36.9958 37.6386 38.2194 38.4709L51.8248 47.7161C53.0484 48.5472 53.3688 50.2289 52.5376 51.4525Z" fill="#7B1111"/>
<path d="M52.5376 51.4524L52.3677 51.7009C52.3011 51.7987 52.229 51.8912 52.1527 51.9772C51.6204 51.9848 51.0817 51.8353 50.6108 51.5148L34.858 40.8105C34.5129 40.5761 34.2397 40.274 34.0451 39.9341C34.114 39.7611 34.2032 39.5922 34.3128 39.432L34.4817 39.1835C35.3139 37.9599 36.9956 37.6384 38.2193 38.4706L51.8247 47.7158C53.0483 48.5471 53.3688 50.2288 52.5376 51.4524Z" fill="#7B1111"/>
<path d="M37.587 38.5285L36.3396 40.3264L34.8816 42.4274C34.0096 41.7608 33.159 41.0994 32.33 40.4468C2.72925 17.1214 0.208337 3.14192 0.0149699 0.303732C0.00347965 0.135312 0.218171 0.055812 0.319306 0.191003C0.765562 0.788288 1.67257 1.98824 2.96454 3.63072C2.96558 3.63072 2.96558 3.63176 2.96558 3.6329C8.53327 10.7092 21.2408 25.9899 34.9999 36.6007C35.8591 37.2629 36.7214 37.907 37.587 38.5285Z" fill="#7B1111"/>
<path d="M37.587 38.5288L36.3396 40.3267C35.4956 39.6804 34.6719 39.0395 33.8687 38.4073C12.9934 21.9578 5.58701 10.1567 2.96558 3.63306C8.53327 10.7094 21.2408 25.9901 35 36.6008C35.8591 37.2632 36.7214 37.9073 37.587 38.5288Z" fill="#7B1111"/>
<path d="M39.442 35.8697L33.2774 44.7515C32.772 45.4794 31.7624 45.6622 31.0333 45.1558C30.3054 44.6505 30.1226 43.6408 30.6279 42.9117L31.1323 42.1858L36.7914 34.031C37.1043 33.5805 37.6086 33.3396 38.1204 33.3396C38.401 33.3396 38.6838 33.4116 38.9377 33.5622C38.971 33.5815 39.0043 33.603 39.0366 33.6256C39.7645 34.1311 39.9473 35.1418 39.442 35.8697Z" fill="#7B1111"/>
<path d="M38.9376 33.5619L33.2774 41.7168C32.7946 42.4135 31.8515 42.6114 31.1322 42.1856L36.7913 34.0307C37.1042 33.5802 37.6086 33.3394 38.1203 33.3394C38.4011 33.3394 38.6839 33.4114 38.9376 33.5619Z" fill="#7B1111"/>
<path d="M41.2634 40.5393C41.257 40.5511 41.2494 40.563 41.2408 40.5748L37.9924 45.1845L36.6591 44.2791C36.6613 44.2748 36.6635 44.2716 36.6667 44.2673L39.9215 39.6458C39.9247 39.6414 39.9279 39.6372 39.9312 39.6328L41.2634 40.5393Z" fill="#7B1111"/>
<path d="M44.072 42.4467C44.0537 42.4822 44.0333 42.5166 44.0097 42.5499L40.8571 47.0263C40.8399 47.05 40.8227 47.0725 40.8033 47.094L39.4797 46.195C39.4969 46.1617 39.5162 46.1284 39.5388 46.0972L42.6915 41.6209C42.7098 41.5951 42.728 41.5714 42.7495 41.5488L44.072 42.4467Z" fill="#7B1111"/>
<path d="M47.0043 44.4403C46.9999 44.4467 46.9957 44.4533 46.9914 44.4597L43.7365 49.0812C43.7355 49.0823 43.7343 49.0844 43.7333 49.0856L42.4 48.1802C42.4054 48.1706 42.4108 48.1619 42.4172 48.1533L45.671 43.5339L47.0043 44.4403Z" fill="#7B1111"/>
<path d="M49.9086 46.4135C49.9043 46.4199 49.9 46.4264 49.8957 46.4328L46.6408 51.0544C46.6398 51.0566 46.6386 51.0576 46.6376 51.0598L45.3032 50.1533C45.3086 50.1436 45.315 50.135 45.3215 50.1253L48.5753 45.5071L49.9086 46.4135Z" fill="#7B1111"/>
<path d="M52.6419 48.5976L49.6635 52.8244C49.6613 52.8277 49.6591 52.8309 49.6559 52.8342C49.2989 52.7697 48.9494 52.631 48.6312 52.4148L48.228 52.1406C48.2517 52.0556 48.2903 51.9729 48.3442 51.8965L51.4108 47.5428C51.428 47.518 51.4463 47.4944 51.4667 47.4729L51.8248 47.716C52.172 47.9513 52.4462 48.2556 52.6419 48.5976Z" fill="#7B1111"/>
<path d="M36.6667 44.2678C36.6635 44.2721 36.6613 44.2754 36.6591 44.2796L37.9924 45.1849L39.0623 43.6677L37.7279 42.7612L36.6667 44.2678Z" fill="#7B1111"/>
<path d="M39.5388 46.0981C39.5162 46.1293 39.4969 46.1626 39.4797 46.196L40.8033 47.0949C40.8227 47.0734 40.8399 47.0508 40.8571 47.0272L41.8764 45.5798L40.542 44.6733L39.5388 46.0981Z" fill="#7B1111"/>
<path d="M42.4172 48.1537C42.4108 48.1623 42.4054 48.1709 42.4 48.1806L43.7333 49.086C43.7343 49.085 43.7355 49.0828 43.7365 49.0816L44.8021 47.5676L43.4677 46.6611L42.4172 48.1537Z" fill="#7B1111"/>
<path d="M45.3215 50.1259C45.3151 50.1355 45.3086 50.1442 45.3032 50.1538L46.6376 51.0603C46.6386 51.0581 46.6398 51.0571 46.6408 51.0549L47.7064 49.542L46.372 48.6345L45.3215 50.1259Z" fill="#7B1111"/>
<path d="M49.2591 50.5969L48.3441 51.8969C48.2903 51.9733 48.2516 52.056 48.2279 52.141L48.6311 52.4152C48.9494 52.6313 49.2989 52.77 49.6558 52.8345C49.659 52.8313 49.6612 52.8281 49.6634 52.8249L50.5946 51.5044L49.2591 50.5969Z" fill="#7B1111"/>
</svg>
